%TF.GenerationSoftware,KiCad,Pcbnew,8.0.4*%
%TF.CreationDate,2024-09-03T12:05:00-07:00*%
%TF.ProjectId,MoonPhase,4d6f6f6e-5068-4617-9365-2e6b69636164,rev?*%
%TF.SameCoordinates,Original*%
%TF.FileFunction,Copper,L1,Top*%
%TF.FilePolarity,Positive*%
%FSLAX46Y46*%
G04 Gerber Fmt 4.6, Leading zero omitted, Abs format (unit mm)*
G04 Created by KiCad (PCBNEW 8.0.4) date 2024-09-03 12:05:00*
%MOMM*%
%LPD*%
G01*
G04 APERTURE LIST*
G04 Aperture macros list*
%AMRoundRect*
0 Rectangle with rounded corners*
0 $1 Rounding radius*
0 $2 $3 $4 $5 $6 $7 $8 $9 X,Y pos of 4 corners*
0 Add a 4 corners polygon primitive as box body*
4,1,4,$2,$3,$4,$5,$6,$7,$8,$9,$2,$3,0*
0 Add four circle primitives for the rounded corners*
1,1,$1+$1,$2,$3*
1,1,$1+$1,$4,$5*
1,1,$1+$1,$6,$7*
1,1,$1+$1,$8,$9*
0 Add four rect primitives between the rounded corners*
20,1,$1+$1,$2,$3,$4,$5,0*
20,1,$1+$1,$4,$5,$6,$7,0*
20,1,$1+$1,$6,$7,$8,$9,0*
20,1,$1+$1,$8,$9,$2,$3,0*%
%AMFreePoly0*
4,1,28,0.178017,0.779942,0.347107,0.720775,0.498792,0.625465,0.625465,0.498792,0.720775,0.347107,0.779942,0.178017,0.800000,0.000000,0.779942,-0.178017,0.720775,-0.347107,0.625465,-0.498792,0.498792,-0.625465,0.347107,-0.720775,0.178017,-0.779942,0.000000,-0.800000,-2.200000,-0.800000,-2.205014,-0.794986,-2.244504,-0.794986,-2.324698,-0.756366,-2.380194,-0.686777,-2.400000,-0.600000,
-2.400000,0.600000,-2.380194,0.686777,-2.324698,0.756366,-2.244504,0.794986,-2.205014,0.794986,-2.200000,0.800000,0.000000,0.800000,0.178017,0.779942,0.178017,0.779942,$1*%
%AMFreePoly1*
4,1,28,0.605014,0.794986,0.644504,0.794986,0.724698,0.756366,0.780194,0.686777,0.800000,0.600000,0.800000,-0.600000,0.780194,-0.686777,0.724698,-0.756366,0.644504,-0.794986,0.605014,-0.794986,0.600000,-0.800000,0.000000,-0.800000,-0.178017,-0.779942,-0.347107,-0.720775,-0.498792,-0.625465,-0.625465,-0.498792,-0.720775,-0.347107,-0.779942,-0.178017,-0.800000,0.000000,-0.779942,0.178017,
-0.720775,0.347107,-0.625465,0.498792,-0.498792,0.625465,-0.347107,0.720775,-0.178017,0.779942,0.000000,0.800000,0.600000,0.800000,0.605014,0.794986,0.605014,0.794986,$1*%
%AMFreePoly2*
4,1,29,0.605014,0.794986,0.644504,0.794986,0.724698,0.756366,0.780194,0.686777,0.800000,0.600000,0.800000,-0.600000,0.780194,-0.686777,0.724698,-0.756366,0.644504,-0.794986,0.605014,-0.794986,0.600000,-0.800000,0.000000,-0.800000,-1.600000,-0.800000,-1.778017,-0.779942,-1.947107,-0.720775,-2.098792,-0.625465,-2.225465,-0.498792,-2.320775,-0.347107,-2.379942,-0.178017,-2.400000,0.000000,
-2.379942,0.178017,-2.320775,0.347107,-2.225465,0.498792,-2.098792,0.625465,-1.947107,0.720775,-1.778017,0.779942,-1.600000,0.800000,0.600000,0.800000,0.605014,0.794986,0.605014,0.794986,$1*%
%AMFreePoly3*
4,1,28,0.178017,0.779942,0.347107,0.720775,0.498792,0.625465,0.625465,0.498792,0.720775,0.347107,0.779942,0.178017,0.800000,0.000000,0.779942,-0.178017,0.720775,-0.347107,0.625465,-0.498792,0.498792,-0.625465,0.347107,-0.720775,0.178017,-0.779942,0.000000,-0.800000,-0.600000,-0.800000,-0.605014,-0.794986,-0.644504,-0.794986,-0.724698,-0.756366,-0.780194,-0.686777,-0.800000,-0.600000,
-0.800000,0.600000,-0.780194,0.686777,-0.724698,0.756366,-0.644504,0.794986,-0.605014,0.794986,-0.600000,0.800000,0.000000,0.800000,0.178017,0.779942,0.178017,0.779942,$1*%
%AMFreePoly4*
4,1,29,1.778017,0.779942,1.947107,0.720775,2.098792,0.625465,2.225465,0.498792,2.320775,0.347107,2.379942,0.178017,2.400000,0.000000,2.379942,-0.178017,2.320775,-0.347107,2.225465,-0.498792,2.098792,-0.625465,1.947107,-0.720775,1.778017,-0.779942,1.600000,-0.800000,0.000000,-0.800000,-0.600000,-0.800000,-0.605014,-0.794986,-0.644504,-0.794986,-0.724698,-0.756366,-0.780194,-0.686777,
-0.800000,-0.600000,-0.800000,0.600000,-0.780194,0.686777,-0.724698,0.756366,-0.644504,0.794986,-0.605014,0.794986,-0.600000,0.800000,1.600000,0.800000,1.778017,0.779942,1.778017,0.779942,$1*%
G04 Aperture macros list end*
%TA.AperFunction,SMDPad,CuDef*%
%ADD10RoundRect,0.250000X0.262500X0.450000X-0.262500X0.450000X-0.262500X-0.450000X0.262500X-0.450000X0*%
%TD*%
%TA.AperFunction,ComponentPad*%
%ADD11R,1.700000X1.700000*%
%TD*%
%TA.AperFunction,ComponentPad*%
%ADD12O,1.700000X1.700000*%
%TD*%
%TA.AperFunction,ComponentPad*%
%ADD13RoundRect,0.250000X-0.725000X0.600000X-0.725000X-0.600000X0.725000X-0.600000X0.725000X0.600000X0*%
%TD*%
%TA.AperFunction,ComponentPad*%
%ADD14O,1.950000X1.700000*%
%TD*%
%TA.AperFunction,ComponentPad*%
%ADD15RoundRect,0.200000X-0.600000X-0.600000X0.600000X-0.600000X0.600000X0.600000X-0.600000X0.600000X0*%
%TD*%
%TA.AperFunction,SMDPad,CuDef*%
%ADD16FreePoly0,0.000000*%
%TD*%
%TA.AperFunction,ComponentPad*%
%ADD17C,1.600000*%
%TD*%
%TA.AperFunction,SMDPad,CuDef*%
%ADD18RoundRect,0.800000X-0.800000X-0.000010X0.800000X-0.000010X0.800000X0.000010X-0.800000X0.000010X0*%
%TD*%
%TA.AperFunction,ComponentPad*%
%ADD19FreePoly1,0.000000*%
%TD*%
%TA.AperFunction,SMDPad,CuDef*%
%ADD20FreePoly2,0.000000*%
%TD*%
%TA.AperFunction,ComponentPad*%
%ADD21FreePoly3,0.000000*%
%TD*%
%TA.AperFunction,SMDPad,CuDef*%
%ADD22FreePoly4,0.000000*%
%TD*%
%TA.AperFunction,SMDPad,CuDef*%
%ADD23RoundRect,0.250000X0.450000X-0.350000X0.450000X0.350000X-0.450000X0.350000X-0.450000X-0.350000X0*%
%TD*%
%TA.AperFunction,ComponentPad*%
%ADD24R,1.600000X1.600000*%
%TD*%
%TA.AperFunction,SMDPad,CuDef*%
%ADD25RoundRect,0.243750X-0.456250X0.243750X-0.456250X-0.243750X0.456250X-0.243750X0.456250X0.243750X0*%
%TD*%
%TA.AperFunction,ComponentPad*%
%ADD26R,1.200000X1.200000*%
%TD*%
%TA.AperFunction,ComponentPad*%
%ADD27C,1.200000*%
%TD*%
%TA.AperFunction,SMDPad,CuDef*%
%ADD28RoundRect,0.243750X0.243750X0.456250X-0.243750X0.456250X-0.243750X-0.456250X0.243750X-0.456250X0*%
%TD*%
%TA.AperFunction,SMDPad,CuDef*%
%ADD29RoundRect,0.243750X0.456250X-0.243750X0.456250X0.243750X-0.456250X0.243750X-0.456250X-0.243750X0*%
%TD*%
%TA.AperFunction,SMDPad,CuDef*%
%ADD30RoundRect,0.250000X-0.450000X0.262500X-0.450000X-0.262500X0.450000X-0.262500X0.450000X0.262500X0*%
%TD*%
%TA.AperFunction,ViaPad*%
%ADD31C,0.600000*%
%TD*%
%TA.AperFunction,Conductor*%
%ADD32C,0.200000*%
%TD*%
G04 APERTURE END LIST*
D10*
%TO.P,R4,1*%
%TO.N,+3V3*%
X148232500Y-86717500D03*
%TO.P,R4,2*%
%TO.N,Net-(Q1-C)*%
X146407500Y-86717500D03*
%TD*%
D11*
%TO.P,Q1,1,C*%
%TO.N,Net-(Q1-C)*%
X146957500Y-115570000D03*
D12*
%TO.P,Q1,2,E*%
%TO.N,GND*%
X149497500Y-115570000D03*
%TD*%
D13*
%TO.P,J3,1,Pin_1*%
%TO.N,LS_OUT_1*%
X177055000Y-92710000D03*
D14*
%TO.P,J3,2,Pin_2*%
%TO.N,LS_OUT_2*%
X177055000Y-95210000D03*
%TO.P,J3,3,Pin_3*%
%TO.N,LS_OUT_3*%
X177055000Y-97710000D03*
%TO.P,J3,4,Pin_4*%
%TO.N,LS_OUT_4*%
X177055000Y-100210000D03*
%TO.P,J3,5,Pin_5*%
%TO.N,+5V*%
X177055000Y-102710000D03*
%TD*%
D15*
%TO.P,U3,1,GPIO0*%
%TO.N,unconnected-(U3-GPIO0-Pad1)_1*%
X124460000Y-63500000D03*
D16*
%TO.N,unconnected-(U3-GPIO0-Pad1)*%
X124460000Y-63500000D03*
D17*
%TO.P,U3,2,GPIO1*%
%TO.N,unconnected-(U3-GPIO1-Pad2)*%
X124460000Y-66040000D03*
D18*
%TO.N,unconnected-(U3-GPIO1-Pad2)_1*%
X123660000Y-66040000D03*
D19*
%TO.P,U3,3,GND*%
%TO.N,GND*%
X124460000Y-68580000D03*
D20*
X124460000Y-68580000D03*
D17*
%TO.P,U3,4,GPIO2*%
%TO.N,PV_IN_1*%
X124460000Y-71120000D03*
D18*
X123660000Y-71120000D03*
D17*
%TO.P,U3,5,GPIO3*%
%TO.N,PV_IN_2*%
X124460000Y-73660000D03*
D18*
X123660000Y-73660000D03*
D17*
%TO.P,U3,6,GPIO4*%
%TO.N,PV_IN_3*%
X124460000Y-76200000D03*
D18*
X123660000Y-76200000D03*
D17*
%TO.P,U3,7,GPIO5*%
%TO.N,PV_IN_4*%
X124460000Y-78740000D03*
D18*
X123660000Y-78740000D03*
D19*
%TO.P,U3,8,GND*%
%TO.N,GND*%
X124460000Y-81280000D03*
D20*
X124460000Y-81280000D03*
D17*
%TO.P,U3,9,GPIO6*%
%TO.N,LS_IN_1*%
X124460000Y-83820000D03*
D18*
X123660000Y-83820000D03*
D17*
%TO.P,U3,10,GPIO7*%
%TO.N,LS_IN_2*%
X124460000Y-86360000D03*
D18*
X123660000Y-86360000D03*
D17*
%TO.P,U3,11,GPIO8*%
%TO.N,LS_IN_3*%
X124460000Y-88900000D03*
D18*
X123660000Y-88900000D03*
D17*
%TO.P,U3,12,GPIO9*%
%TO.N,LS_IN_4*%
X124460000Y-91440000D03*
D18*
X123660000Y-91440000D03*
D19*
%TO.P,U3,13,GND*%
%TO.N,GND*%
X124460000Y-93980000D03*
D20*
X124460000Y-93980000D03*
D17*
%TO.P,U3,14,GPIO10*%
%TO.N,IL_IN_2*%
X124460000Y-96520000D03*
D18*
X123660000Y-96520000D03*
D17*
%TO.P,U3,15,GPIO11*%
%TO.N,IL_IN_1*%
X124460000Y-99060000D03*
D18*
X123660000Y-99060000D03*
D17*
%TO.P,U3,16,GPIO12*%
%TO.N,unconnected-(U3-GPIO12-Pad16)_1*%
X124460000Y-101600000D03*
D18*
%TO.N,unconnected-(U3-GPIO12-Pad16)*%
X123660000Y-101600000D03*
D17*
%TO.P,U3,17,GPIO13*%
%TO.N,LED_IN*%
X124460000Y-104140000D03*
D18*
X123660000Y-104140000D03*
D19*
%TO.P,U3,18,GND*%
%TO.N,GND*%
X124460000Y-106680000D03*
D20*
X124460000Y-106680000D03*
D17*
%TO.P,U3,19,GPIO14*%
%TO.N,unconnected-(U3-GPIO14-Pad19)*%
X124460000Y-109220000D03*
D18*
%TO.N,unconnected-(U3-GPIO14-Pad19)_1*%
X123660000Y-109220000D03*
D17*
%TO.P,U3,20,GPIO15*%
%TO.N,unconnected-(U3-GPIO15-Pad20)*%
X124460000Y-111760000D03*
D18*
%TO.N,unconnected-(U3-GPIO15-Pad20)_1*%
X123660000Y-111760000D03*
D17*
%TO.P,U3,21,GPIO16*%
%TO.N,unconnected-(U3-GPIO16-Pad21)*%
X142240000Y-111760000D03*
D18*
%TO.N,unconnected-(U3-GPIO16-Pad21)_1*%
X143040000Y-111760000D03*
D17*
%TO.P,U3,22,GPIO17*%
%TO.N,unconnected-(U3-GPIO17-Pad22)*%
X142240000Y-109220000D03*
D18*
%TO.N,unconnected-(U3-GPIO17-Pad22)_1*%
X143040000Y-109220000D03*
D21*
%TO.P,U3,23,GND*%
%TO.N,GND*%
X142240000Y-106680000D03*
D22*
X142240000Y-106680000D03*
D17*
%TO.P,U3,24,GPIO18*%
%TO.N,unconnected-(U3-GPIO18-Pad24)_1*%
X142240000Y-104140000D03*
D18*
%TO.N,unconnected-(U3-GPIO18-Pad24)*%
X143040000Y-104140000D03*
D17*
%TO.P,U3,25,GPIO19*%
%TO.N,unconnected-(U3-GPIO19-Pad25)*%
X142240000Y-101600000D03*
D18*
%TO.N,unconnected-(U3-GPIO19-Pad25)_1*%
X143040000Y-101600000D03*
D17*
%TO.P,U3,26,GPIO20*%
%TO.N,unconnected-(U3-GPIO20-Pad26)*%
X142240000Y-99060000D03*
D18*
%TO.N,unconnected-(U3-GPIO20-Pad26)_1*%
X143040000Y-99060000D03*
D17*
%TO.P,U3,27,GPIO21*%
%TO.N,unconnected-(U3-GPIO21-Pad27)_1*%
X142240000Y-96520000D03*
D18*
%TO.N,unconnected-(U3-GPIO21-Pad27)*%
X143040000Y-96520000D03*
D21*
%TO.P,U3,28,GND*%
%TO.N,GND*%
X142240000Y-93980000D03*
D22*
X142240000Y-93980000D03*
D17*
%TO.P,U3,29,GPIO22*%
%TO.N,unconnected-(U3-GPIO22-Pad29)_1*%
X142240000Y-91440000D03*
D18*
%TO.N,unconnected-(U3-GPIO22-Pad29)*%
X143040000Y-91440000D03*
D17*
%TO.P,U3,30,RUN*%
%TO.N,unconnected-(U3-RUN-Pad30)_1*%
X142240000Y-88900000D03*
D18*
%TO.N,unconnected-(U3-RUN-Pad30)*%
X143040000Y-88900000D03*
D17*
%TO.P,U3,31,GPIO26_ADC0*%
%TO.N,Net-(Q1-C)*%
X142240000Y-86360000D03*
D18*
X143040000Y-86360000D03*
D17*
%TO.P,U3,32,GPIO27_ADC1*%
%TO.N,unconnected-(U3-GPIO27_ADC1-Pad32)*%
X142240000Y-83820000D03*
D18*
%TO.N,unconnected-(U3-GPIO27_ADC1-Pad32)_1*%
X143040000Y-83820000D03*
D21*
%TO.P,U3,33,AGND*%
%TO.N,unconnected-(U3-AGND-Pad33)*%
X142240000Y-81280000D03*
D22*
%TO.N,unconnected-(U3-AGND-Pad33)_1*%
X142240000Y-81280000D03*
D17*
%TO.P,U3,34,GPIO28_ADC2*%
%TO.N,unconnected-(U3-GPIO28_ADC2-Pad34)*%
X142240000Y-78740000D03*
D18*
%TO.N,unconnected-(U3-GPIO28_ADC2-Pad34)_1*%
X143040000Y-78740000D03*
D17*
%TO.P,U3,35,ADC_VREF*%
%TO.N,unconnected-(U3-ADC_VREF-Pad35)*%
X142240000Y-76200000D03*
D18*
%TO.N,unconnected-(U3-ADC_VREF-Pad35)_1*%
X143040000Y-76200000D03*
D17*
%TO.P,U3,36,3V3*%
%TO.N,+3V3*%
X142240000Y-73660000D03*
D18*
X143040000Y-73660000D03*
D17*
%TO.P,U3,37,3V3_EN*%
%TO.N,unconnected-(U3-3V3_EN-Pad37)*%
X142240000Y-71120000D03*
D18*
%TO.N,unconnected-(U3-3V3_EN-Pad37)_1*%
X143040000Y-71120000D03*
D21*
%TO.P,U3,38,GND*%
%TO.N,GND*%
X142240000Y-68580000D03*
D22*
X142240000Y-68580000D03*
D17*
%TO.P,U3,39,VSYS*%
%TO.N,unconnected-(U3-VSYS-Pad39)*%
X142240000Y-66040000D03*
D18*
%TO.N,unconnected-(U3-VSYS-Pad39)_1*%
X143040000Y-66040000D03*
D17*
%TO.P,U3,40,VBUS*%
%TO.N,+5V*%
X142240000Y-63500000D03*
D18*
X143040000Y-63500000D03*
%TD*%
D23*
%TO.P,R2,1*%
%TO.N,Net-(D2-K)*%
X167640000Y-92710000D03*
%TO.P,R2,2*%
%TO.N,LS_OUT_1*%
X167640000Y-90710000D03*
%TD*%
D13*
%TO.P,J2,1,Pin_1*%
%TO.N,PV_OUT_1*%
X177055000Y-64850000D03*
D14*
%TO.P,J2,2,Pin_2*%
%TO.N,PV_OUT_2*%
X177055000Y-67350000D03*
%TO.P,J2,3,Pin_3*%
%TO.N,PV_OUT_3*%
X177055000Y-69850000D03*
%TO.P,J2,4,Pin_4*%
%TO.N,PV_OUT_4*%
X177055000Y-72350000D03*
%TO.P,J2,5,Pin_5*%
%TO.N,+5V*%
X177055000Y-74850000D03*
%TD*%
D24*
%TO.P,U2,1,I1*%
%TO.N,LS_IN_1*%
X151130000Y-93980000D03*
D17*
%TO.P,U2,2,I2*%
%TO.N,LS_IN_2*%
X151130000Y-96520000D03*
%TO.P,U2,3,I3*%
%TO.N,LS_IN_3*%
X151130000Y-99060000D03*
%TO.P,U2,4,I4*%
%TO.N,LS_IN_4*%
X151130000Y-101600000D03*
%TO.P,U2,5,I5*%
%TO.N,IL_IN_2*%
X151130000Y-104140000D03*
%TO.P,U2,6,I6*%
X151130000Y-106680000D03*
%TO.P,U2,7,I7*%
%TO.N,unconnected-(U2-I7-Pad7)*%
X151130000Y-109220000D03*
%TO.P,U2,8,GND*%
%TO.N,GND*%
X151130000Y-111760000D03*
%TO.P,U2,9,COM*%
%TO.N,+5V*%
X158750000Y-111760000D03*
%TO.P,U2,10,O7*%
%TO.N,unconnected-(U2-O7-Pad10)*%
X158750000Y-109220000D03*
%TO.P,U2,11,O6*%
%TO.N,IL_OUT_2*%
X158750000Y-106680000D03*
%TO.P,U2,12,O5*%
X158750000Y-104140000D03*
%TO.P,U2,13,O4*%
%TO.N,LS_OUT_4*%
X158750000Y-101600000D03*
%TO.P,U2,14,O3*%
%TO.N,LS_OUT_3*%
X158750000Y-99060000D03*
%TO.P,U2,15,O2*%
%TO.N,LS_OUT_2*%
X158750000Y-96520000D03*
%TO.P,U2,16,O1*%
%TO.N,LS_OUT_1*%
X158750000Y-93980000D03*
%TD*%
D24*
%TO.P,U1,1,I1*%
%TO.N,PV_IN_1*%
X151130000Y-69850000D03*
D17*
%TO.P,U1,2,I2*%
%TO.N,PV_IN_2*%
X151130000Y-72390000D03*
%TO.P,U1,3,I3*%
%TO.N,PV_IN_3*%
X151130000Y-74930000D03*
%TO.P,U1,4,I4*%
%TO.N,PV_IN_4*%
X151130000Y-77470000D03*
%TO.P,U1,5,I5*%
%TO.N,LED_IN*%
X151130000Y-80010000D03*
%TO.P,U1,6,I6*%
%TO.N,IL_IN_1*%
X151130000Y-82550000D03*
%TO.P,U1,7,I7*%
X151130000Y-85090000D03*
%TO.P,U1,8,GND*%
%TO.N,GND*%
X151130000Y-87630000D03*
%TO.P,U1,9,COM*%
%TO.N,+5V*%
X158750000Y-87630000D03*
%TO.P,U1,10,O7*%
%TO.N,IL_OUT_1*%
X158750000Y-85090000D03*
%TO.P,U1,11,O6*%
X158750000Y-82550000D03*
%TO.P,U1,12,O5*%
%TO.N,LED_OUT*%
X158750000Y-80010000D03*
%TO.P,U1,13,O4*%
%TO.N,PV_OUT_4*%
X158750000Y-77470000D03*
%TO.P,U1,14,O3*%
%TO.N,PV_OUT_3*%
X158750000Y-74930000D03*
%TO.P,U1,15,O2*%
%TO.N,PV_OUT_2*%
X158750000Y-72390000D03*
%TO.P,U1,16,O1*%
%TO.N,PV_OUT_1*%
X158750000Y-69850000D03*
%TD*%
D25*
%TO.P,D2,1,K*%
%TO.N,Net-(D2-K)*%
X167640000Y-95582500D03*
%TO.P,D2,2,A*%
%TO.N,+5V*%
X167640000Y-97457500D03*
%TD*%
D26*
%TO.P,C2,1*%
%TO.N,+5V*%
X167640000Y-112490000D03*
D27*
%TO.P,C2,2*%
%TO.N,IL_OUT_2*%
X167640000Y-110490000D03*
%TD*%
D28*
%TO.P,D3,1,K*%
%TO.N,Net-(D3-K)*%
X152067500Y-63500000D03*
%TO.P,D3,2,A*%
%TO.N,+5V*%
X150192500Y-63500000D03*
%TD*%
D29*
%TO.P,D1,1,K*%
%TO.N,Net-(D1-K)*%
X167640000Y-70787500D03*
%TO.P,D1,2,A*%
%TO.N,+5V*%
X167640000Y-68912500D03*
%TD*%
D30*
%TO.P,R1,1*%
%TO.N,Net-(D1-K)*%
X167640000Y-73105000D03*
%TO.P,R1,2*%
%TO.N,PV_OUT_4*%
X167640000Y-74930000D03*
%TD*%
D13*
%TO.P,J1,1,Pin_1*%
%TO.N,IL_OUT_1*%
X177260000Y-109260000D03*
D14*
%TO.P,J1,2,Pin_2*%
%TO.N,IL_OUT_2*%
X177260000Y-111760000D03*
%TO.P,J1,3,Pin_3*%
%TO.N,+5V*%
X177260000Y-114260000D03*
%TD*%
D26*
%TO.P,C1,1*%
%TO.N,+5V*%
X167640000Y-107950000D03*
D27*
%TO.P,C1,2*%
%TO.N,IL_OUT_1*%
X167640000Y-105950000D03*
%TD*%
D10*
%TO.P,R3,1*%
%TO.N,LED_OUT*%
X158392500Y-63500000D03*
%TO.P,R3,2*%
%TO.N,Net-(D3-K)*%
X156567500Y-63500000D03*
%TD*%
D31*
%TO.N,LED_IN*%
X132080000Y-80010000D03*
%TO.N,+3V3*%
X147320000Y-85090000D03*
%TD*%
D32*
%TO.N,GND*%
X149497500Y-113392500D02*
X151130000Y-111760000D01*
X149497500Y-115570000D02*
X149497500Y-113392500D01*
%TO.N,IL_IN_2*%
X149860000Y-105410000D02*
X151130000Y-104140000D01*
X141371422Y-105410000D02*
X149860000Y-105410000D01*
X124460000Y-96520000D02*
X132470000Y-104530000D01*
X132470000Y-104530000D02*
X140491422Y-104530000D01*
X140491422Y-104530000D02*
X141371422Y-105410000D01*
%TO.N,LED_IN*%
X132080000Y-80010000D02*
X151130000Y-80010000D01*
%TO.N,+3V3*%
X148232500Y-86002500D02*
X147320000Y-85090000D01*
X148232500Y-86717500D02*
X148232500Y-86002500D01*
%TO.N,Net-(Q1-C)*%
X142597500Y-86717500D02*
X142240000Y-86360000D01*
X146407500Y-86717500D02*
X142597500Y-86717500D01*
%TO.N,PV_IN_1*%
X151130000Y-69850000D02*
X132875505Y-69850000D01*
X131545505Y-71180000D02*
X124520000Y-71180000D01*
X124520000Y-71180000D02*
X124460000Y-71120000D01*
X132875505Y-69850000D02*
X131545505Y-71180000D01*
%TO.N,LS_IN_4*%
X150030000Y-102700000D02*
X135720000Y-102700000D01*
X135720000Y-102700000D02*
X124460000Y-91440000D01*
X151130000Y-101600000D02*
X150030000Y-102700000D01*
%TO.N,LS_IN_2*%
X151130000Y-96520000D02*
X150030000Y-97620000D01*
X135720000Y-97620000D02*
X124460000Y-86360000D01*
X150030000Y-97620000D02*
X135720000Y-97620000D01*
%TO.N,GND*%
X151130000Y-87630000D02*
X144780000Y-93980000D01*
X151130000Y-111760000D02*
X146050000Y-106680000D01*
X146050000Y-106680000D02*
X142240000Y-106680000D01*
X144780000Y-93980000D02*
X142240000Y-93980000D01*
%TO.N,LS_IN_1*%
X138270030Y-95090031D02*
X137565891Y-94385892D01*
X137565891Y-92877226D02*
X128508665Y-83820000D01*
X128508665Y-83820000D02*
X124460000Y-83820000D01*
X137565891Y-94385892D02*
X137565891Y-92877226D01*
X150019969Y-95090031D02*
X138270030Y-95090031D01*
X151130000Y-93980000D02*
X150019969Y-95090031D01*
%TO.N,PV_IN_4*%
X125730000Y-77470000D02*
X124460000Y-78740000D01*
X151130000Y-77470000D02*
X125730000Y-77470000D01*
%TO.N,PV_IN_2*%
X130154496Y-71580000D02*
X129800000Y-71934496D01*
X132355504Y-72390000D02*
X131545504Y-71580000D01*
X129800000Y-71934496D02*
X129800000Y-73435722D01*
X129800000Y-73435722D02*
X129575722Y-73660000D01*
X129575722Y-73660000D02*
X124460000Y-73660000D01*
X151130000Y-72390000D02*
X132355504Y-72390000D01*
X131545504Y-71580000D02*
X130154496Y-71580000D01*
%TO.N,+5V*%
X158889744Y-62500000D02*
X151192500Y-62500000D01*
X177800000Y-114260000D02*
X167640000Y-114260000D01*
X167640000Y-107950000D02*
X162560000Y-107950000D01*
X161250000Y-114260000D02*
X158750000Y-111760000D01*
X167640000Y-112490000D02*
X167640000Y-114260000D01*
X142240000Y-63500000D02*
X150192500Y-63500000D01*
X178330000Y-68580000D02*
X178330000Y-73575000D01*
X151192500Y-62500000D02*
X150192500Y-63500000D01*
X162560000Y-107950000D02*
X167640000Y-102870000D01*
X178330000Y-64015256D02*
X177958247Y-63643503D01*
X152230000Y-81110000D02*
X152230000Y-65537500D01*
X168577500Y-68912500D02*
X168910000Y-68580000D01*
X177958247Y-63643503D02*
X176005000Y-63643503D01*
X167640000Y-68912500D02*
X168577500Y-68912500D01*
X179050000Y-113010000D02*
X178510000Y-113010000D01*
X175448503Y-64200000D02*
X160589744Y-64200000D01*
X176005000Y-63643503D02*
X175448503Y-64200000D01*
X160589744Y-64200000D02*
X158889744Y-62500000D01*
X178330000Y-64015256D02*
X178330000Y-68580000D01*
X178330000Y-73575000D02*
X177055000Y-74850000D01*
X167640000Y-114260000D02*
X161250000Y-114260000D01*
X179050000Y-104705000D02*
X179050000Y-113010000D01*
X178510000Y-113010000D02*
X177260000Y-114260000D01*
X158750000Y-111760000D02*
X162560000Y-107950000D01*
X177055000Y-102710000D02*
X179050000Y-104705000D01*
X158750000Y-87630000D02*
X152230000Y-81110000D01*
X152230000Y-65537500D02*
X150192500Y-63500000D01*
X167640000Y-102870000D02*
X167640000Y-97457500D01*
X168910000Y-68580000D02*
X178330000Y-68580000D01*
%TO.N,PV_IN_3*%
X132795505Y-74930000D02*
X131525505Y-76200000D01*
X131525505Y-76200000D02*
X124460000Y-76200000D01*
X151130000Y-74930000D02*
X132795505Y-74930000D01*
%TO.N,LS_IN_3*%
X135720000Y-100160000D02*
X124460000Y-88900000D01*
X151130000Y-99060000D02*
X150030000Y-100160000D01*
X150030000Y-100160000D02*
X135720000Y-100160000D01*
%TO.N,Net-(D1-K)*%
X167640000Y-73105000D02*
X167640000Y-70787500D01*
%TO.N,Net-(D2-K)*%
X167640000Y-92710000D02*
X167640000Y-95582500D01*
%TO.N,PV_OUT_4*%
X167640000Y-74930000D02*
X174475000Y-74930000D01*
X161290000Y-74930000D02*
X158750000Y-77470000D01*
X174475000Y-74930000D02*
X177055000Y-72350000D01*
X167640000Y-74930000D02*
X161290000Y-74930000D01*
%TO.N,PV_OUT_1*%
X158750000Y-69850000D02*
X163830000Y-64770000D01*
X173990000Y-64770000D02*
X174070000Y-64850000D01*
X163830000Y-64770000D02*
X173990000Y-64770000D01*
X174070000Y-64850000D02*
X177055000Y-64850000D01*
%TO.N,PV_OUT_2*%
X165100000Y-67310000D02*
X166370000Y-67310000D01*
X166410000Y-67350000D02*
X177055000Y-67350000D01*
X158750000Y-72390000D02*
X160020000Y-72390000D01*
X166370000Y-67310000D02*
X166410000Y-67350000D01*
X160020000Y-72390000D02*
X165100000Y-67310000D01*
%TO.N,LS_OUT_1*%
X169640000Y-92710000D02*
X177055000Y-92710000D01*
X158750000Y-93980000D02*
X161290000Y-93980000D01*
X167640000Y-90710000D02*
X169640000Y-92710000D01*
X164560000Y-90710000D02*
X167640000Y-90710000D01*
X161290000Y-93980000D02*
X164560000Y-90710000D01*
%TO.N,LS_OUT_2*%
X172720000Y-96520000D02*
X174030000Y-95210000D01*
X174030000Y-95210000D02*
X177055000Y-95210000D01*
X158750000Y-96520000D02*
X172720000Y-96520000D01*
%TO.N,LED_OUT*%
X157650000Y-64242500D02*
X157650000Y-78910000D01*
X157650000Y-78910000D02*
X158750000Y-80010000D01*
X158392500Y-63500000D02*
X157650000Y-64242500D01*
%TO.N,IL_IN_1*%
X124460000Y-99060000D02*
X123328630Y-99060000D01*
X120650000Y-83820000D02*
X121920000Y-82550000D01*
X120650000Y-96381370D02*
X120650000Y-83820000D01*
X121920000Y-82550000D02*
X151130000Y-82550000D01*
X151130000Y-82550000D02*
X151130000Y-85090000D01*
X123328630Y-99060000D02*
X120650000Y-96381370D01*
%TO.N,Net-(D3-K)*%
X152067500Y-63500000D02*
X156567500Y-63500000D01*
%TD*%
M02*
