M48
; DRILL file {KiCad 8.0.1} date 2024-07-19T13:11:42-0700
; FORMAT={-:-/ absolute / inch / decimal}
; #@! TF.CreationDate,2024-07-19T13:11:42-07:00
; #@! TF.GenerationSoftware,Kicad,Pcbnew,8.0.1
; #@! TF.FileFunction,Plated,1,2,PTH
FMAT,2
INCH
; #@! TA.AperFunction,Plated,PTH,ComponentDrill
T1C0.0315
; #@! TA.AperFunction,Plated,PTH,ComponentDrill
T2C0.0374
; #@! TA.AperFunction,Plated,PTH,ComponentDrill
T3C0.0394
%
G90
G05
T1
X5.95Y-2.75
X5.95Y-2.85
X5.95Y-2.95
X5.95Y-3.05
X5.95Y-3.15
X5.95Y-3.25
X5.95Y-3.35
X5.95Y-3.45
X5.95Y-3.7
X5.95Y-3.8
X5.95Y-3.9
X5.95Y-4.0
X5.95Y-4.1
X5.95Y-4.2
X5.95Y-4.3
X5.95Y-4.4
X6.25Y-2.75
X6.25Y-2.85
X6.25Y-2.95
X6.25Y-3.05
X6.25Y-3.15
X6.25Y-3.25
X6.25Y-3.35
X6.25Y-3.45
X6.25Y-3.7
X6.25Y-3.8
X6.25Y-3.9
X6.25Y-4.0
X6.25Y-4.1
X6.25Y-4.2
X6.25Y-4.3
X6.25Y-4.4
T2
X6.9707Y-2.5531
X6.9707Y-2.6516
X6.9707Y-2.75
X6.9707Y-2.8484
X6.9707Y-2.9469
X6.9707Y-3.5531
X6.9707Y-3.6516
X6.9707Y-3.75
X6.9707Y-3.8484
X6.9707Y-3.9469
X6.9787Y-4.3016
X6.9787Y-4.4
X6.9787Y-4.4984
T3
X4.9Y-2.5
X4.9Y-2.6
X4.9Y-2.7
X4.9Y-2.8
X4.9Y-2.9
X4.9Y-3.0
X4.9Y-3.1
X4.9Y-3.2
X4.9Y-3.3
X4.9Y-3.4
X4.9Y-3.5
X4.9Y-3.6
X4.9Y-3.7
X4.9Y-3.8
X4.9Y-3.9
X4.9Y-4.0
X4.9Y-4.1
X4.9Y-4.2
X4.9Y-4.3
X4.9Y-4.4
X5.6Y-2.5
X5.6Y-2.6
X5.6Y-2.7
X5.6Y-2.8
X5.6Y-2.9
X5.6Y-3.0
X5.6Y-3.1
X5.6Y-3.2
X5.6Y-3.3
X5.6Y-3.4
X5.6Y-3.5
X5.6Y-3.6
X5.6Y-3.7
X5.6Y-3.8
X5.6Y-3.9
X5.6Y-4.0
X5.6Y-4.1
X5.6Y-4.2
X5.6Y-4.3
X5.6Y-4.4
M30
