%TF.GenerationSoftware,KiCad,Pcbnew,8.0.1*%
%TF.CreationDate,2024-07-19T13:11:37-07:00*%
%TF.ProjectId,MoonPhase,4d6f6f6e-5068-4617-9365-2e6b69636164,rev?*%
%TF.SameCoordinates,Original*%
%TF.FileFunction,Soldermask,Top*%
%TF.FilePolarity,Negative*%
%FSLAX46Y46*%
G04 Gerber Fmt 4.6, Leading zero omitted, Abs format (unit mm)*
G04 Created by KiCad (PCBNEW 8.0.1) date 2024-07-19 13:11:37*
%MOMM*%
%LPD*%
G01*
G04 APERTURE LIST*
G04 Aperture macros list*
%AMRoundRect*
0 Rectangle with rounded corners*
0 $1 Rounding radius*
0 $2 $3 $4 $5 $6 $7 $8 $9 X,Y pos of 4 corners*
0 Add a 4 corners polygon primitive as box body*
4,1,4,$2,$3,$4,$5,$6,$7,$8,$9,$2,$3,0*
0 Add four circle primitives for the rounded corners*
1,1,$1+$1,$2,$3*
1,1,$1+$1,$4,$5*
1,1,$1+$1,$6,$7*
1,1,$1+$1,$8,$9*
0 Add four rect primitives between the rounded corners*
20,1,$1+$1,$2,$3,$4,$5,0*
20,1,$1+$1,$4,$5,$6,$7,0*
20,1,$1+$1,$6,$7,$8,$9,0*
20,1,$1+$1,$8,$9,$2,$3,0*%
%AMFreePoly0*
4,1,28,0.178017,0.779942,0.347107,0.720775,0.498792,0.625465,0.625465,0.498792,0.720775,0.347107,0.779942,0.178017,0.800000,0.000000,0.779942,-0.178017,0.720775,-0.347107,0.625465,-0.498792,0.498792,-0.625465,0.347107,-0.720775,0.178017,-0.779942,0.000000,-0.800000,-2.200000,-0.800000,-2.205014,-0.794986,-2.244504,-0.794986,-2.324698,-0.756366,-2.380194,-0.686777,-2.400000,-0.600000,
-2.400000,0.600000,-2.380194,0.686777,-2.324698,0.756366,-2.244504,0.794986,-2.205014,0.794986,-2.200000,0.800000,0.000000,0.800000,0.178017,0.779942,0.178017,0.779942,$1*%
%AMFreePoly1*
4,1,28,0.605014,0.794986,0.644504,0.794986,0.724698,0.756366,0.780194,0.686777,0.800000,0.600000,0.800000,-0.600000,0.780194,-0.686777,0.724698,-0.756366,0.644504,-0.794986,0.605014,-0.794986,0.600000,-0.800000,0.000000,-0.800000,-0.178017,-0.779942,-0.347107,-0.720775,-0.498792,-0.625465,-0.625465,-0.498792,-0.720775,-0.347107,-0.779942,-0.178017,-0.800000,0.000000,-0.779942,0.178017,
-0.720775,0.347107,-0.625465,0.498792,-0.498792,0.625465,-0.347107,0.720775,-0.178017,0.779942,0.000000,0.800000,0.600000,0.800000,0.605014,0.794986,0.605014,0.794986,$1*%
%AMFreePoly2*
4,1,29,0.605014,0.794986,0.644504,0.794986,0.724698,0.756366,0.780194,0.686777,0.800000,0.600000,0.800000,-0.600000,0.780194,-0.686777,0.724698,-0.756366,0.644504,-0.794986,0.605014,-0.794986,0.600000,-0.800000,0.000000,-0.800000,-1.600000,-0.800000,-1.778017,-0.779942,-1.947107,-0.720775,-2.098792,-0.625465,-2.225465,-0.498792,-2.320775,-0.347107,-2.379942,-0.178017,-2.400000,0.000000,
-2.379942,0.178017,-2.320775,0.347107,-2.225465,0.498792,-2.098792,0.625465,-1.947107,0.720775,-1.778017,0.779942,-1.600000,0.800000,0.600000,0.800000,0.605014,0.794986,0.605014,0.794986,$1*%
%AMFreePoly3*
4,1,28,0.178017,0.779942,0.347107,0.720775,0.498792,0.625465,0.625465,0.498792,0.720775,0.347107,0.779942,0.178017,0.800000,0.000000,0.779942,-0.178017,0.720775,-0.347107,0.625465,-0.498792,0.498792,-0.625465,0.347107,-0.720775,0.178017,-0.779942,0.000000,-0.800000,-0.600000,-0.800000,-0.605014,-0.794986,-0.644504,-0.794986,-0.724698,-0.756366,-0.780194,-0.686777,-0.800000,-0.600000,
-0.800000,0.600000,-0.780194,0.686777,-0.724698,0.756366,-0.644504,0.794986,-0.605014,0.794986,-0.600000,0.800000,0.000000,0.800000,0.178017,0.779942,0.178017,0.779942,$1*%
%AMFreePoly4*
4,1,29,1.778017,0.779942,1.947107,0.720775,2.098792,0.625465,2.225465,0.498792,2.320775,0.347107,2.379942,0.178017,2.400000,0.000000,2.379942,-0.178017,2.320775,-0.347107,2.225465,-0.498792,2.098792,-0.625465,1.947107,-0.720775,1.778017,-0.779942,1.600000,-0.800000,0.000000,-0.800000,-0.600000,-0.800000,-0.605014,-0.794986,-0.644504,-0.794986,-0.724698,-0.756366,-0.780194,-0.686777,
-0.800000,-0.600000,-0.800000,0.600000,-0.780194,0.686777,-0.724698,0.756366,-0.644504,0.794986,-0.605014,0.794986,-0.600000,0.800000,1.600000,0.800000,1.778017,0.779942,1.778017,0.779942,$1*%
G04 Aperture macros list end*
%ADD10RoundRect,0.250000X0.262500X0.450000X-0.262500X0.450000X-0.262500X-0.450000X0.262500X-0.450000X0*%
%ADD11RoundRect,0.243750X0.243750X0.456250X-0.243750X0.456250X-0.243750X-0.456250X0.243750X-0.456250X0*%
%ADD12C,2.200000*%
%ADD13C,1.850000*%
%ADD14RoundRect,0.200000X-0.600000X-0.600000X0.600000X-0.600000X0.600000X0.600000X-0.600000X0.600000X0*%
%ADD15FreePoly0,0.000000*%
%ADD16C,1.600000*%
%ADD17RoundRect,0.800000X-0.800000X-0.000010X0.800000X-0.000010X0.800000X0.000010X-0.800000X0.000010X0*%
%ADD18FreePoly1,0.000000*%
%ADD19FreePoly2,0.000000*%
%ADD20FreePoly3,0.000000*%
%ADD21FreePoly4,0.000000*%
%ADD22C,1.200000*%
%ADD23RoundRect,0.250000X-0.725000X0.600000X-0.725000X-0.600000X0.725000X-0.600000X0.725000X0.600000X0*%
%ADD24O,1.950000X1.700000*%
%ADD25RoundRect,0.250000X0.450000X-0.350000X0.450000X0.350000X-0.450000X0.350000X-0.450000X-0.350000X0*%
%ADD26R,1.600000X1.600000*%
%ADD27RoundRect,0.243750X-0.456250X0.243750X-0.456250X-0.243750X0.456250X-0.243750X0.456250X0.243750X0*%
%ADD28RoundRect,0.243750X0.456250X-0.243750X0.456250X0.243750X-0.456250X0.243750X-0.456250X-0.243750X0*%
%ADD29RoundRect,0.250000X-0.450000X0.262500X-0.450000X-0.262500X0.450000X-0.262500X0.450000X0.262500X0*%
G04 APERTURE END LIST*
D10*
%TO.C,R3*%
X158392500Y-63500000D03*
X156567500Y-63500000D03*
%TD*%
D11*
%TO.C,D3*%
X152067500Y-63500000D03*
X150192500Y-63500000D03*
%TD*%
D12*
%TO.C,U3*%
X130625000Y-63630000D03*
D13*
X130925000Y-66660000D03*
X135775000Y-66660000D03*
D12*
X136075000Y-63630000D03*
D14*
X124460000Y-63500000D03*
D15*
X124460000Y-63500000D03*
D16*
X124460000Y-66040000D03*
D17*
X123660000Y-66040000D03*
D18*
X124460000Y-68580000D03*
D19*
X124460000Y-68580000D03*
D16*
X124460000Y-71120000D03*
D17*
X123660000Y-71120000D03*
D16*
X124460000Y-73660000D03*
D17*
X123660000Y-73660000D03*
D16*
X124460000Y-76200000D03*
D17*
X123660000Y-76200000D03*
D16*
X124460000Y-78740000D03*
D17*
X123660000Y-78740000D03*
D18*
X124460000Y-81280000D03*
D19*
X124460000Y-81280000D03*
D16*
X124460000Y-83820000D03*
D17*
X123660000Y-83820000D03*
D16*
X124460000Y-86360000D03*
D17*
X123660000Y-86360000D03*
D16*
X124460000Y-88900000D03*
D17*
X123660000Y-88900000D03*
D16*
X124460000Y-91440000D03*
D17*
X123660000Y-91440000D03*
D18*
X124460000Y-93980000D03*
D19*
X124460000Y-93980000D03*
D16*
X124460000Y-96520000D03*
D17*
X123660000Y-96520000D03*
D16*
X124460000Y-99060000D03*
D17*
X123660000Y-99060000D03*
D16*
X124460000Y-101600000D03*
D17*
X123660000Y-101600000D03*
D16*
X124460000Y-104140000D03*
D17*
X123660000Y-104140000D03*
D18*
X124460000Y-106680000D03*
D19*
X124460000Y-106680000D03*
D16*
X124460000Y-109220000D03*
D17*
X123660000Y-109220000D03*
D16*
X124460000Y-111760000D03*
D17*
X123660000Y-111760000D03*
D16*
X142240000Y-111760000D03*
D17*
X143040000Y-111760000D03*
D16*
X142240000Y-109220000D03*
D17*
X143040000Y-109220000D03*
D20*
X142240000Y-106680000D03*
D21*
X142240000Y-106680000D03*
D16*
X142240000Y-104140000D03*
D17*
X143040000Y-104140000D03*
D16*
X142240000Y-101600000D03*
D17*
X143040000Y-101600000D03*
D16*
X142240000Y-99060000D03*
D17*
X143040000Y-99060000D03*
D16*
X142240000Y-96520000D03*
D17*
X143040000Y-96520000D03*
D20*
X142240000Y-93980000D03*
D21*
X142240000Y-93980000D03*
D16*
X142240000Y-91440000D03*
D17*
X143040000Y-91440000D03*
D16*
X142240000Y-88900000D03*
D17*
X143040000Y-88900000D03*
D16*
X142240000Y-86360000D03*
D17*
X143040000Y-86360000D03*
D16*
X142240000Y-83820000D03*
D17*
X143040000Y-83820000D03*
D20*
X142240000Y-81280000D03*
D21*
X142240000Y-81280000D03*
D16*
X142240000Y-78740000D03*
D17*
X143040000Y-78740000D03*
D16*
X142240000Y-76200000D03*
D17*
X143040000Y-76200000D03*
D16*
X142240000Y-73660000D03*
D17*
X143040000Y-73660000D03*
D16*
X142240000Y-71120000D03*
D17*
X143040000Y-71120000D03*
D20*
X142240000Y-68580000D03*
D21*
X142240000Y-68580000D03*
D16*
X142240000Y-66040000D03*
D17*
X143040000Y-66040000D03*
D16*
X142240000Y-63500000D03*
D17*
X143040000Y-63500000D03*
%TD*%
D22*
%TO.C,J3*%
X175055000Y-88650000D03*
D23*
X177055000Y-90250000D03*
D24*
X177055000Y-92750000D03*
X177055000Y-95250000D03*
X177055000Y-97750000D03*
X177055000Y-100250000D03*
%TD*%
D25*
%TO.C,R2*%
X167640000Y-89900000D03*
X167640000Y-87900000D03*
%TD*%
D22*
%TO.C,J2*%
X175055000Y-63250000D03*
D23*
X177055000Y-64850000D03*
D24*
X177055000Y-67350000D03*
X177055000Y-69850000D03*
X177055000Y-72350000D03*
X177055000Y-74850000D03*
%TD*%
D26*
%TO.C,U2*%
X151130000Y-93980000D03*
D16*
X151130000Y-96520000D03*
X151130000Y-99060000D03*
X151130000Y-101600000D03*
X151130000Y-104140000D03*
X151130000Y-106680000D03*
X151130000Y-109220000D03*
X151130000Y-111760000D03*
X158750000Y-111760000D03*
X158750000Y-109220000D03*
X158750000Y-106680000D03*
X158750000Y-104140000D03*
X158750000Y-101600000D03*
X158750000Y-99060000D03*
X158750000Y-96520000D03*
X158750000Y-93980000D03*
%TD*%
D26*
%TO.C,U1*%
X151130000Y-69850000D03*
D16*
X151130000Y-72390000D03*
X151130000Y-74930000D03*
X151130000Y-77470000D03*
X151130000Y-80010000D03*
X151130000Y-82550000D03*
X151130000Y-85090000D03*
X151130000Y-87630000D03*
X158750000Y-87630000D03*
X158750000Y-85090000D03*
X158750000Y-82550000D03*
X158750000Y-80010000D03*
X158750000Y-77470000D03*
X158750000Y-74930000D03*
X158750000Y-72390000D03*
X158750000Y-69850000D03*
%TD*%
D27*
%TO.C,D2*%
X167640000Y-95582500D03*
X167640000Y-97457500D03*
%TD*%
D28*
%TO.C,D1*%
X167640000Y-70787500D03*
X167640000Y-68912500D03*
%TD*%
D29*
%TO.C,R1*%
X167640000Y-76557500D03*
X167640000Y-78382500D03*
%TD*%
D22*
%TO.C,J1*%
X175260000Y-107660000D03*
D23*
X177260000Y-109260000D03*
D24*
X177260000Y-111760000D03*
X177260000Y-114260000D03*
%TD*%
M02*
