%TF.GenerationSoftware,KiCad,Pcbnew,8.0.4*%
%TF.CreationDate,2024-09-03T12:05:00-07:00*%
%TF.ProjectId,MoonPhase,4d6f6f6e-5068-4617-9365-2e6b69636164,rev?*%
%TF.SameCoordinates,Original*%
%TF.FileFunction,Legend,Top*%
%TF.FilePolarity,Positive*%
%FSLAX46Y46*%
G04 Gerber Fmt 4.6, Leading zero omitted, Abs format (unit mm)*
G04 Created by KiCad (PCBNEW 8.0.4) date 2024-09-03 12:05:00*
%MOMM*%
%LPD*%
G01*
G04 APERTURE LIST*
%ADD10C,0.100000*%
%ADD11C,0.150000*%
%ADD12C,0.120000*%
%ADD13C,0.000000*%
G04 APERTURE END LIST*
D10*
X152703884Y-116712419D02*
X152703884Y-115712419D01*
X152703884Y-115712419D02*
X153037217Y-116426704D01*
X153037217Y-116426704D02*
X153370550Y-115712419D01*
X153370550Y-115712419D02*
X153370550Y-116712419D01*
X153989598Y-116712419D02*
X153894360Y-116664800D01*
X153894360Y-116664800D02*
X153846741Y-116617180D01*
X153846741Y-116617180D02*
X153799122Y-116521942D01*
X153799122Y-116521942D02*
X153799122Y-116236228D01*
X153799122Y-116236228D02*
X153846741Y-116140990D01*
X153846741Y-116140990D02*
X153894360Y-116093371D01*
X153894360Y-116093371D02*
X153989598Y-116045752D01*
X153989598Y-116045752D02*
X154132455Y-116045752D01*
X154132455Y-116045752D02*
X154227693Y-116093371D01*
X154227693Y-116093371D02*
X154275312Y-116140990D01*
X154275312Y-116140990D02*
X154322931Y-116236228D01*
X154322931Y-116236228D02*
X154322931Y-116521942D01*
X154322931Y-116521942D02*
X154275312Y-116617180D01*
X154275312Y-116617180D02*
X154227693Y-116664800D01*
X154227693Y-116664800D02*
X154132455Y-116712419D01*
X154132455Y-116712419D02*
X153989598Y-116712419D01*
X154894360Y-116712419D02*
X154799122Y-116664800D01*
X154799122Y-116664800D02*
X154751503Y-116617180D01*
X154751503Y-116617180D02*
X154703884Y-116521942D01*
X154703884Y-116521942D02*
X154703884Y-116236228D01*
X154703884Y-116236228D02*
X154751503Y-116140990D01*
X154751503Y-116140990D02*
X154799122Y-116093371D01*
X154799122Y-116093371D02*
X154894360Y-116045752D01*
X154894360Y-116045752D02*
X155037217Y-116045752D01*
X155037217Y-116045752D02*
X155132455Y-116093371D01*
X155132455Y-116093371D02*
X155180074Y-116140990D01*
X155180074Y-116140990D02*
X155227693Y-116236228D01*
X155227693Y-116236228D02*
X155227693Y-116521942D01*
X155227693Y-116521942D02*
X155180074Y-116617180D01*
X155180074Y-116617180D02*
X155132455Y-116664800D01*
X155132455Y-116664800D02*
X155037217Y-116712419D01*
X155037217Y-116712419D02*
X154894360Y-116712419D01*
X155656265Y-116045752D02*
X155656265Y-116712419D01*
X155656265Y-116140990D02*
X155703884Y-116093371D01*
X155703884Y-116093371D02*
X155799122Y-116045752D01*
X155799122Y-116045752D02*
X155941979Y-116045752D01*
X155941979Y-116045752D02*
X156037217Y-116093371D01*
X156037217Y-116093371D02*
X156084836Y-116188609D01*
X156084836Y-116188609D02*
X156084836Y-116712419D01*
X157322932Y-116712419D02*
X157322932Y-115712419D01*
X157322932Y-115712419D02*
X157703884Y-115712419D01*
X157703884Y-115712419D02*
X157799122Y-115760038D01*
X157799122Y-115760038D02*
X157846741Y-115807657D01*
X157846741Y-115807657D02*
X157894360Y-115902895D01*
X157894360Y-115902895D02*
X157894360Y-116045752D01*
X157894360Y-116045752D02*
X157846741Y-116140990D01*
X157846741Y-116140990D02*
X157799122Y-116188609D01*
X157799122Y-116188609D02*
X157703884Y-116236228D01*
X157703884Y-116236228D02*
X157322932Y-116236228D01*
X158322932Y-116712419D02*
X158322932Y-115712419D01*
X158751503Y-116712419D02*
X158751503Y-116188609D01*
X158751503Y-116188609D02*
X158703884Y-116093371D01*
X158703884Y-116093371D02*
X158608646Y-116045752D01*
X158608646Y-116045752D02*
X158465789Y-116045752D01*
X158465789Y-116045752D02*
X158370551Y-116093371D01*
X158370551Y-116093371D02*
X158322932Y-116140990D01*
X159656265Y-116712419D02*
X159656265Y-116188609D01*
X159656265Y-116188609D02*
X159608646Y-116093371D01*
X159608646Y-116093371D02*
X159513408Y-116045752D01*
X159513408Y-116045752D02*
X159322932Y-116045752D01*
X159322932Y-116045752D02*
X159227694Y-116093371D01*
X159656265Y-116664800D02*
X159561027Y-116712419D01*
X159561027Y-116712419D02*
X159322932Y-116712419D01*
X159322932Y-116712419D02*
X159227694Y-116664800D01*
X159227694Y-116664800D02*
X159180075Y-116569561D01*
X159180075Y-116569561D02*
X159180075Y-116474323D01*
X159180075Y-116474323D02*
X159227694Y-116379085D01*
X159227694Y-116379085D02*
X159322932Y-116331466D01*
X159322932Y-116331466D02*
X159561027Y-116331466D01*
X159561027Y-116331466D02*
X159656265Y-116283847D01*
X160084837Y-116664800D02*
X160180075Y-116712419D01*
X160180075Y-116712419D02*
X160370551Y-116712419D01*
X160370551Y-116712419D02*
X160465789Y-116664800D01*
X160465789Y-116664800D02*
X160513408Y-116569561D01*
X160513408Y-116569561D02*
X160513408Y-116521942D01*
X160513408Y-116521942D02*
X160465789Y-116426704D01*
X160465789Y-116426704D02*
X160370551Y-116379085D01*
X160370551Y-116379085D02*
X160227694Y-116379085D01*
X160227694Y-116379085D02*
X160132456Y-116331466D01*
X160132456Y-116331466D02*
X160084837Y-116236228D01*
X160084837Y-116236228D02*
X160084837Y-116188609D01*
X160084837Y-116188609D02*
X160132456Y-116093371D01*
X160132456Y-116093371D02*
X160227694Y-116045752D01*
X160227694Y-116045752D02*
X160370551Y-116045752D01*
X160370551Y-116045752D02*
X160465789Y-116093371D01*
X161322932Y-116664800D02*
X161227694Y-116712419D01*
X161227694Y-116712419D02*
X161037218Y-116712419D01*
X161037218Y-116712419D02*
X160941980Y-116664800D01*
X160941980Y-116664800D02*
X160894361Y-116569561D01*
X160894361Y-116569561D02*
X160894361Y-116188609D01*
X160894361Y-116188609D02*
X160941980Y-116093371D01*
X160941980Y-116093371D02*
X161037218Y-116045752D01*
X161037218Y-116045752D02*
X161227694Y-116045752D01*
X161227694Y-116045752D02*
X161322932Y-116093371D01*
X161322932Y-116093371D02*
X161370551Y-116188609D01*
X161370551Y-116188609D02*
X161370551Y-116283847D01*
X161370551Y-116283847D02*
X160894361Y-116379085D01*
X162561028Y-116712419D02*
X162561028Y-115712419D01*
X162561028Y-115712419D02*
X162799123Y-115712419D01*
X162799123Y-115712419D02*
X162941980Y-115760038D01*
X162941980Y-115760038D02*
X163037218Y-115855276D01*
X163037218Y-115855276D02*
X163084837Y-115950514D01*
X163084837Y-115950514D02*
X163132456Y-116140990D01*
X163132456Y-116140990D02*
X163132456Y-116283847D01*
X163132456Y-116283847D02*
X163084837Y-116474323D01*
X163084837Y-116474323D02*
X163037218Y-116569561D01*
X163037218Y-116569561D02*
X162941980Y-116664800D01*
X162941980Y-116664800D02*
X162799123Y-116712419D01*
X162799123Y-116712419D02*
X162561028Y-116712419D01*
X163561028Y-116712419D02*
X163561028Y-116045752D01*
X163561028Y-115712419D02*
X163513409Y-115760038D01*
X163513409Y-115760038D02*
X163561028Y-115807657D01*
X163561028Y-115807657D02*
X163608647Y-115760038D01*
X163608647Y-115760038D02*
X163561028Y-115712419D01*
X163561028Y-115712419D02*
X163561028Y-115807657D01*
X163989599Y-116664800D02*
X164084837Y-116712419D01*
X164084837Y-116712419D02*
X164275313Y-116712419D01*
X164275313Y-116712419D02*
X164370551Y-116664800D01*
X164370551Y-116664800D02*
X164418170Y-116569561D01*
X164418170Y-116569561D02*
X164418170Y-116521942D01*
X164418170Y-116521942D02*
X164370551Y-116426704D01*
X164370551Y-116426704D02*
X164275313Y-116379085D01*
X164275313Y-116379085D02*
X164132456Y-116379085D01*
X164132456Y-116379085D02*
X164037218Y-116331466D01*
X164037218Y-116331466D02*
X163989599Y-116236228D01*
X163989599Y-116236228D02*
X163989599Y-116188609D01*
X163989599Y-116188609D02*
X164037218Y-116093371D01*
X164037218Y-116093371D02*
X164132456Y-116045752D01*
X164132456Y-116045752D02*
X164275313Y-116045752D01*
X164275313Y-116045752D02*
X164370551Y-116093371D01*
X164846742Y-116045752D02*
X164846742Y-117045752D01*
X164846742Y-116093371D02*
X164941980Y-116045752D01*
X164941980Y-116045752D02*
X165132456Y-116045752D01*
X165132456Y-116045752D02*
X165227694Y-116093371D01*
X165227694Y-116093371D02*
X165275313Y-116140990D01*
X165275313Y-116140990D02*
X165322932Y-116236228D01*
X165322932Y-116236228D02*
X165322932Y-116521942D01*
X165322932Y-116521942D02*
X165275313Y-116617180D01*
X165275313Y-116617180D02*
X165227694Y-116664800D01*
X165227694Y-116664800D02*
X165132456Y-116712419D01*
X165132456Y-116712419D02*
X164941980Y-116712419D01*
X164941980Y-116712419D02*
X164846742Y-116664800D01*
X165894361Y-116712419D02*
X165799123Y-116664800D01*
X165799123Y-116664800D02*
X165751504Y-116569561D01*
X165751504Y-116569561D02*
X165751504Y-115712419D01*
X166703885Y-116712419D02*
X166703885Y-116188609D01*
X166703885Y-116188609D02*
X166656266Y-116093371D01*
X166656266Y-116093371D02*
X166561028Y-116045752D01*
X166561028Y-116045752D02*
X166370552Y-116045752D01*
X166370552Y-116045752D02*
X166275314Y-116093371D01*
X166703885Y-116664800D02*
X166608647Y-116712419D01*
X166608647Y-116712419D02*
X166370552Y-116712419D01*
X166370552Y-116712419D02*
X166275314Y-116664800D01*
X166275314Y-116664800D02*
X166227695Y-116569561D01*
X166227695Y-116569561D02*
X166227695Y-116474323D01*
X166227695Y-116474323D02*
X166275314Y-116379085D01*
X166275314Y-116379085D02*
X166370552Y-116331466D01*
X166370552Y-116331466D02*
X166608647Y-116331466D01*
X166608647Y-116331466D02*
X166703885Y-116283847D01*
X167084838Y-116045752D02*
X167322933Y-116712419D01*
X167561028Y-116045752D02*
X167322933Y-116712419D01*
X167322933Y-116712419D02*
X167227695Y-116950514D01*
X167227695Y-116950514D02*
X167180076Y-116998133D01*
X167180076Y-116998133D02*
X167084838Y-117045752D01*
X169275314Y-116712419D02*
X168941981Y-116236228D01*
X168703886Y-116712419D02*
X168703886Y-115712419D01*
X168703886Y-115712419D02*
X169084838Y-115712419D01*
X169084838Y-115712419D02*
X169180076Y-115760038D01*
X169180076Y-115760038D02*
X169227695Y-115807657D01*
X169227695Y-115807657D02*
X169275314Y-115902895D01*
X169275314Y-115902895D02*
X169275314Y-116045752D01*
X169275314Y-116045752D02*
X169227695Y-116140990D01*
X169227695Y-116140990D02*
X169180076Y-116188609D01*
X169180076Y-116188609D02*
X169084838Y-116236228D01*
X169084838Y-116236228D02*
X168703886Y-116236228D01*
X170084838Y-116664800D02*
X169989600Y-116712419D01*
X169989600Y-116712419D02*
X169799124Y-116712419D01*
X169799124Y-116712419D02*
X169703886Y-116664800D01*
X169703886Y-116664800D02*
X169656267Y-116569561D01*
X169656267Y-116569561D02*
X169656267Y-116188609D01*
X169656267Y-116188609D02*
X169703886Y-116093371D01*
X169703886Y-116093371D02*
X169799124Y-116045752D01*
X169799124Y-116045752D02*
X169989600Y-116045752D01*
X169989600Y-116045752D02*
X170084838Y-116093371D01*
X170084838Y-116093371D02*
X170132457Y-116188609D01*
X170132457Y-116188609D02*
X170132457Y-116283847D01*
X170132457Y-116283847D02*
X169656267Y-116379085D01*
X170465791Y-116045752D02*
X170703886Y-116712419D01*
X170703886Y-116712419D02*
X170941981Y-116045752D01*
X172656267Y-116617180D02*
X172608648Y-116664800D01*
X172608648Y-116664800D02*
X172465791Y-116712419D01*
X172465791Y-116712419D02*
X172370553Y-116712419D01*
X172370553Y-116712419D02*
X172227696Y-116664800D01*
X172227696Y-116664800D02*
X172132458Y-116569561D01*
X172132458Y-116569561D02*
X172084839Y-116474323D01*
X172084839Y-116474323D02*
X172037220Y-116283847D01*
X172037220Y-116283847D02*
X172037220Y-116140990D01*
X172037220Y-116140990D02*
X172084839Y-115950514D01*
X172084839Y-115950514D02*
X172132458Y-115855276D01*
X172132458Y-115855276D02*
X172227696Y-115760038D01*
X172227696Y-115760038D02*
X172370553Y-115712419D01*
X172370553Y-115712419D02*
X172465791Y-115712419D01*
X172465791Y-115712419D02*
X172608648Y-115760038D01*
X172608648Y-115760038D02*
X172656267Y-115807657D01*
D11*
X147153333Y-88822319D02*
X146820000Y-88346128D01*
X146581905Y-88822319D02*
X146581905Y-87822319D01*
X146581905Y-87822319D02*
X146962857Y-87822319D01*
X146962857Y-87822319D02*
X147058095Y-87869938D01*
X147058095Y-87869938D02*
X147105714Y-87917557D01*
X147105714Y-87917557D02*
X147153333Y-88012795D01*
X147153333Y-88012795D02*
X147153333Y-88155652D01*
X147153333Y-88155652D02*
X147105714Y-88250890D01*
X147105714Y-88250890D02*
X147058095Y-88298509D01*
X147058095Y-88298509D02*
X146962857Y-88346128D01*
X146962857Y-88346128D02*
X146581905Y-88346128D01*
X148010476Y-88155652D02*
X148010476Y-88822319D01*
X147772381Y-87774700D02*
X147534286Y-88488985D01*
X147534286Y-88488985D02*
X148153333Y-88488985D01*
X144060057Y-115665238D02*
X144012438Y-115760476D01*
X144012438Y-115760476D02*
X143917200Y-115855714D01*
X143917200Y-115855714D02*
X143774342Y-115998571D01*
X143774342Y-115998571D02*
X143726723Y-116093809D01*
X143726723Y-116093809D02*
X143726723Y-116189047D01*
X143964819Y-116141428D02*
X143917200Y-116236666D01*
X143917200Y-116236666D02*
X143821961Y-116331904D01*
X143821961Y-116331904D02*
X143631485Y-116379523D01*
X143631485Y-116379523D02*
X143298152Y-116379523D01*
X143298152Y-116379523D02*
X143107676Y-116331904D01*
X143107676Y-116331904D02*
X143012438Y-116236666D01*
X143012438Y-116236666D02*
X142964819Y-116141428D01*
X142964819Y-116141428D02*
X142964819Y-115950952D01*
X142964819Y-115950952D02*
X143012438Y-115855714D01*
X143012438Y-115855714D02*
X143107676Y-115760476D01*
X143107676Y-115760476D02*
X143298152Y-115712857D01*
X143298152Y-115712857D02*
X143631485Y-115712857D01*
X143631485Y-115712857D02*
X143821961Y-115760476D01*
X143821961Y-115760476D02*
X143917200Y-115855714D01*
X143917200Y-115855714D02*
X143964819Y-115950952D01*
X143964819Y-115950952D02*
X143964819Y-116141428D01*
X143964819Y-114760476D02*
X143964819Y-115331904D01*
X143964819Y-115046190D02*
X142964819Y-115046190D01*
X142964819Y-115046190D02*
X143107676Y-115141428D01*
X143107676Y-115141428D02*
X143202914Y-115236666D01*
X143202914Y-115236666D02*
X143250533Y-115331904D01*
X180059819Y-98043333D02*
X180774104Y-98043333D01*
X180774104Y-98043333D02*
X180916961Y-98090952D01*
X180916961Y-98090952D02*
X181012200Y-98186190D01*
X181012200Y-98186190D02*
X181059819Y-98329047D01*
X181059819Y-98329047D02*
X181059819Y-98424285D01*
X180059819Y-97662380D02*
X180059819Y-97043333D01*
X180059819Y-97043333D02*
X180440771Y-97376666D01*
X180440771Y-97376666D02*
X180440771Y-97233809D01*
X180440771Y-97233809D02*
X180488390Y-97138571D01*
X180488390Y-97138571D02*
X180536009Y-97090952D01*
X180536009Y-97090952D02*
X180631247Y-97043333D01*
X180631247Y-97043333D02*
X180869342Y-97043333D01*
X180869342Y-97043333D02*
X180964580Y-97090952D01*
X180964580Y-97090952D02*
X181012200Y-97138571D01*
X181012200Y-97138571D02*
X181059819Y-97233809D01*
X181059819Y-97233809D02*
X181059819Y-97519523D01*
X181059819Y-97519523D02*
X181012200Y-97614761D01*
X181012200Y-97614761D02*
X180964580Y-97662380D01*
X145434279Y-111849819D02*
X145434279Y-112659342D01*
X145434279Y-112659342D02*
X145481898Y-112754580D01*
X145481898Y-112754580D02*
X145529517Y-112802200D01*
X145529517Y-112802200D02*
X145624755Y-112849819D01*
X145624755Y-112849819D02*
X145815231Y-112849819D01*
X145815231Y-112849819D02*
X145910469Y-112802200D01*
X145910469Y-112802200D02*
X145958088Y-112754580D01*
X145958088Y-112754580D02*
X146005707Y-112659342D01*
X146005707Y-112659342D02*
X146005707Y-111849819D01*
X146386660Y-111849819D02*
X147005707Y-111849819D01*
X147005707Y-111849819D02*
X146672374Y-112230771D01*
X146672374Y-112230771D02*
X146815231Y-112230771D01*
X146815231Y-112230771D02*
X146910469Y-112278390D01*
X146910469Y-112278390D02*
X146958088Y-112326009D01*
X146958088Y-112326009D02*
X147005707Y-112421247D01*
X147005707Y-112421247D02*
X147005707Y-112659342D01*
X147005707Y-112659342D02*
X146958088Y-112754580D01*
X146958088Y-112754580D02*
X146910469Y-112802200D01*
X146910469Y-112802200D02*
X146815231Y-112849819D01*
X146815231Y-112849819D02*
X146529517Y-112849819D01*
X146529517Y-112849819D02*
X146434279Y-112802200D01*
X146434279Y-112802200D02*
X146386660Y-112754580D01*
X166444819Y-91876666D02*
X165968628Y-92209999D01*
X166444819Y-92448094D02*
X165444819Y-92448094D01*
X165444819Y-92448094D02*
X165444819Y-92067142D01*
X165444819Y-92067142D02*
X165492438Y-91971904D01*
X165492438Y-91971904D02*
X165540057Y-91924285D01*
X165540057Y-91924285D02*
X165635295Y-91876666D01*
X165635295Y-91876666D02*
X165778152Y-91876666D01*
X165778152Y-91876666D02*
X165873390Y-91924285D01*
X165873390Y-91924285D02*
X165921009Y-91971904D01*
X165921009Y-91971904D02*
X165968628Y-92067142D01*
X165968628Y-92067142D02*
X165968628Y-92448094D01*
X165540057Y-91495713D02*
X165492438Y-91448094D01*
X165492438Y-91448094D02*
X165444819Y-91352856D01*
X165444819Y-91352856D02*
X165444819Y-91114761D01*
X165444819Y-91114761D02*
X165492438Y-91019523D01*
X165492438Y-91019523D02*
X165540057Y-90971904D01*
X165540057Y-90971904D02*
X165635295Y-90924285D01*
X165635295Y-90924285D02*
X165730533Y-90924285D01*
X165730533Y-90924285D02*
X165873390Y-90971904D01*
X165873390Y-90971904D02*
X166444819Y-91543332D01*
X166444819Y-91543332D02*
X166444819Y-90924285D01*
X180059819Y-70183333D02*
X180774104Y-70183333D01*
X180774104Y-70183333D02*
X180916961Y-70230952D01*
X180916961Y-70230952D02*
X181012200Y-70326190D01*
X181012200Y-70326190D02*
X181059819Y-70469047D01*
X181059819Y-70469047D02*
X181059819Y-70564285D01*
X180155057Y-69754761D02*
X180107438Y-69707142D01*
X180107438Y-69707142D02*
X180059819Y-69611904D01*
X180059819Y-69611904D02*
X180059819Y-69373809D01*
X180059819Y-69373809D02*
X180107438Y-69278571D01*
X180107438Y-69278571D02*
X180155057Y-69230952D01*
X180155057Y-69230952D02*
X180250295Y-69183333D01*
X180250295Y-69183333D02*
X180345533Y-69183333D01*
X180345533Y-69183333D02*
X180488390Y-69230952D01*
X180488390Y-69230952D02*
X181059819Y-69802380D01*
X181059819Y-69802380D02*
X181059819Y-69183333D01*
X154178095Y-91104819D02*
X154178095Y-91914342D01*
X154178095Y-91914342D02*
X154225714Y-92009580D01*
X154225714Y-92009580D02*
X154273333Y-92057200D01*
X154273333Y-92057200D02*
X154368571Y-92104819D01*
X154368571Y-92104819D02*
X154559047Y-92104819D01*
X154559047Y-92104819D02*
X154654285Y-92057200D01*
X154654285Y-92057200D02*
X154701904Y-92009580D01*
X154701904Y-92009580D02*
X154749523Y-91914342D01*
X154749523Y-91914342D02*
X154749523Y-91104819D01*
X155178095Y-91200057D02*
X155225714Y-91152438D01*
X155225714Y-91152438D02*
X155320952Y-91104819D01*
X155320952Y-91104819D02*
X155559047Y-91104819D01*
X155559047Y-91104819D02*
X155654285Y-91152438D01*
X155654285Y-91152438D02*
X155701904Y-91200057D01*
X155701904Y-91200057D02*
X155749523Y-91295295D01*
X155749523Y-91295295D02*
X155749523Y-91390533D01*
X155749523Y-91390533D02*
X155701904Y-91533390D01*
X155701904Y-91533390D02*
X155130476Y-92104819D01*
X155130476Y-92104819D02*
X155749523Y-92104819D01*
X154178095Y-66974819D02*
X154178095Y-67784342D01*
X154178095Y-67784342D02*
X154225714Y-67879580D01*
X154225714Y-67879580D02*
X154273333Y-67927200D01*
X154273333Y-67927200D02*
X154368571Y-67974819D01*
X154368571Y-67974819D02*
X154559047Y-67974819D01*
X154559047Y-67974819D02*
X154654285Y-67927200D01*
X154654285Y-67927200D02*
X154701904Y-67879580D01*
X154701904Y-67879580D02*
X154749523Y-67784342D01*
X154749523Y-67784342D02*
X154749523Y-66974819D01*
X155749523Y-67974819D02*
X155178095Y-67974819D01*
X155463809Y-67974819D02*
X155463809Y-66974819D01*
X155463809Y-66974819D02*
X155368571Y-67117676D01*
X155368571Y-67117676D02*
X155273333Y-67212914D01*
X155273333Y-67212914D02*
X155178095Y-67260533D01*
X169744819Y-97258094D02*
X168744819Y-97258094D01*
X168744819Y-97258094D02*
X168744819Y-97019999D01*
X168744819Y-97019999D02*
X168792438Y-96877142D01*
X168792438Y-96877142D02*
X168887676Y-96781904D01*
X168887676Y-96781904D02*
X168982914Y-96734285D01*
X168982914Y-96734285D02*
X169173390Y-96686666D01*
X169173390Y-96686666D02*
X169316247Y-96686666D01*
X169316247Y-96686666D02*
X169506723Y-96734285D01*
X169506723Y-96734285D02*
X169601961Y-96781904D01*
X169601961Y-96781904D02*
X169697200Y-96877142D01*
X169697200Y-96877142D02*
X169744819Y-97019999D01*
X169744819Y-97019999D02*
X169744819Y-97258094D01*
X168840057Y-96305713D02*
X168792438Y-96258094D01*
X168792438Y-96258094D02*
X168744819Y-96162856D01*
X168744819Y-96162856D02*
X168744819Y-95924761D01*
X168744819Y-95924761D02*
X168792438Y-95829523D01*
X168792438Y-95829523D02*
X168840057Y-95781904D01*
X168840057Y-95781904D02*
X168935295Y-95734285D01*
X168935295Y-95734285D02*
X169030533Y-95734285D01*
X169030533Y-95734285D02*
X169173390Y-95781904D01*
X169173390Y-95781904D02*
X169744819Y-96353332D01*
X169744819Y-96353332D02*
X169744819Y-95734285D01*
X170539580Y-114466666D02*
X170587200Y-114514285D01*
X170587200Y-114514285D02*
X170634819Y-114657142D01*
X170634819Y-114657142D02*
X170634819Y-114752380D01*
X170634819Y-114752380D02*
X170587200Y-114895237D01*
X170587200Y-114895237D02*
X170491961Y-114990475D01*
X170491961Y-114990475D02*
X170396723Y-115038094D01*
X170396723Y-115038094D02*
X170206247Y-115085713D01*
X170206247Y-115085713D02*
X170063390Y-115085713D01*
X170063390Y-115085713D02*
X169872914Y-115038094D01*
X169872914Y-115038094D02*
X169777676Y-114990475D01*
X169777676Y-114990475D02*
X169682438Y-114895237D01*
X169682438Y-114895237D02*
X169634819Y-114752380D01*
X169634819Y-114752380D02*
X169634819Y-114657142D01*
X169634819Y-114657142D02*
X169682438Y-114514285D01*
X169682438Y-114514285D02*
X169730057Y-114466666D01*
X169730057Y-114085713D02*
X169682438Y-114038094D01*
X169682438Y-114038094D02*
X169634819Y-113942856D01*
X169634819Y-113942856D02*
X169634819Y-113704761D01*
X169634819Y-113704761D02*
X169682438Y-113609523D01*
X169682438Y-113609523D02*
X169730057Y-113561904D01*
X169730057Y-113561904D02*
X169825295Y-113514285D01*
X169825295Y-113514285D02*
X169920533Y-113514285D01*
X169920533Y-113514285D02*
X170063390Y-113561904D01*
X170063390Y-113561904D02*
X170634819Y-114133332D01*
X170634819Y-114133332D02*
X170634819Y-113514285D01*
X150391905Y-65604819D02*
X150391905Y-64604819D01*
X150391905Y-64604819D02*
X150630000Y-64604819D01*
X150630000Y-64604819D02*
X150772857Y-64652438D01*
X150772857Y-64652438D02*
X150868095Y-64747676D01*
X150868095Y-64747676D02*
X150915714Y-64842914D01*
X150915714Y-64842914D02*
X150963333Y-65033390D01*
X150963333Y-65033390D02*
X150963333Y-65176247D01*
X150963333Y-65176247D02*
X150915714Y-65366723D01*
X150915714Y-65366723D02*
X150868095Y-65461961D01*
X150868095Y-65461961D02*
X150772857Y-65557200D01*
X150772857Y-65557200D02*
X150630000Y-65604819D01*
X150630000Y-65604819D02*
X150391905Y-65604819D01*
X151296667Y-64604819D02*
X151915714Y-64604819D01*
X151915714Y-64604819D02*
X151582381Y-64985771D01*
X151582381Y-64985771D02*
X151725238Y-64985771D01*
X151725238Y-64985771D02*
X151820476Y-65033390D01*
X151820476Y-65033390D02*
X151868095Y-65081009D01*
X151868095Y-65081009D02*
X151915714Y-65176247D01*
X151915714Y-65176247D02*
X151915714Y-65414342D01*
X151915714Y-65414342D02*
X151868095Y-65509580D01*
X151868095Y-65509580D02*
X151820476Y-65557200D01*
X151820476Y-65557200D02*
X151725238Y-65604819D01*
X151725238Y-65604819D02*
X151439524Y-65604819D01*
X151439524Y-65604819D02*
X151344286Y-65557200D01*
X151344286Y-65557200D02*
X151296667Y-65509580D01*
X166444819Y-70588094D02*
X165444819Y-70588094D01*
X165444819Y-70588094D02*
X165444819Y-70349999D01*
X165444819Y-70349999D02*
X165492438Y-70207142D01*
X165492438Y-70207142D02*
X165587676Y-70111904D01*
X165587676Y-70111904D02*
X165682914Y-70064285D01*
X165682914Y-70064285D02*
X165873390Y-70016666D01*
X165873390Y-70016666D02*
X166016247Y-70016666D01*
X166016247Y-70016666D02*
X166206723Y-70064285D01*
X166206723Y-70064285D02*
X166301961Y-70111904D01*
X166301961Y-70111904D02*
X166397200Y-70207142D01*
X166397200Y-70207142D02*
X166444819Y-70349999D01*
X166444819Y-70349999D02*
X166444819Y-70588094D01*
X166444819Y-69064285D02*
X166444819Y-69635713D01*
X166444819Y-69349999D02*
X165444819Y-69349999D01*
X165444819Y-69349999D02*
X165587676Y-69445237D01*
X165587676Y-69445237D02*
X165682914Y-69540475D01*
X165682914Y-69540475D02*
X165730533Y-69635713D01*
X169744819Y-74184166D02*
X169268628Y-74517499D01*
X169744819Y-74755594D02*
X168744819Y-74755594D01*
X168744819Y-74755594D02*
X168744819Y-74374642D01*
X168744819Y-74374642D02*
X168792438Y-74279404D01*
X168792438Y-74279404D02*
X168840057Y-74231785D01*
X168840057Y-74231785D02*
X168935295Y-74184166D01*
X168935295Y-74184166D02*
X169078152Y-74184166D01*
X169078152Y-74184166D02*
X169173390Y-74231785D01*
X169173390Y-74231785D02*
X169221009Y-74279404D01*
X169221009Y-74279404D02*
X169268628Y-74374642D01*
X169268628Y-74374642D02*
X169268628Y-74755594D01*
X169744819Y-73231785D02*
X169744819Y-73803213D01*
X169744819Y-73517499D02*
X168744819Y-73517499D01*
X168744819Y-73517499D02*
X168887676Y-73612737D01*
X168887676Y-73612737D02*
X168982914Y-73707975D01*
X168982914Y-73707975D02*
X169030533Y-73803213D01*
X180264819Y-112093333D02*
X180979104Y-112093333D01*
X180979104Y-112093333D02*
X181121961Y-112140952D01*
X181121961Y-112140952D02*
X181217200Y-112236190D01*
X181217200Y-112236190D02*
X181264819Y-112379047D01*
X181264819Y-112379047D02*
X181264819Y-112474285D01*
X181264819Y-111093333D02*
X181264819Y-111664761D01*
X181264819Y-111379047D02*
X180264819Y-111379047D01*
X180264819Y-111379047D02*
X180407676Y-111474285D01*
X180407676Y-111474285D02*
X180502914Y-111569523D01*
X180502914Y-111569523D02*
X180550533Y-111664761D01*
X169269580Y-104306666D02*
X169317200Y-104354285D01*
X169317200Y-104354285D02*
X169364819Y-104497142D01*
X169364819Y-104497142D02*
X169364819Y-104592380D01*
X169364819Y-104592380D02*
X169317200Y-104735237D01*
X169317200Y-104735237D02*
X169221961Y-104830475D01*
X169221961Y-104830475D02*
X169126723Y-104878094D01*
X169126723Y-104878094D02*
X168936247Y-104925713D01*
X168936247Y-104925713D02*
X168793390Y-104925713D01*
X168793390Y-104925713D02*
X168602914Y-104878094D01*
X168602914Y-104878094D02*
X168507676Y-104830475D01*
X168507676Y-104830475D02*
X168412438Y-104735237D01*
X168412438Y-104735237D02*
X168364819Y-104592380D01*
X168364819Y-104592380D02*
X168364819Y-104497142D01*
X168364819Y-104497142D02*
X168412438Y-104354285D01*
X168412438Y-104354285D02*
X168460057Y-104306666D01*
X169364819Y-103354285D02*
X169364819Y-103925713D01*
X169364819Y-103639999D02*
X168364819Y-103639999D01*
X168364819Y-103639999D02*
X168507676Y-103735237D01*
X168507676Y-103735237D02*
X168602914Y-103830475D01*
X168602914Y-103830475D02*
X168650533Y-103925713D01*
X157313333Y-65604819D02*
X156980000Y-65128628D01*
X156741905Y-65604819D02*
X156741905Y-64604819D01*
X156741905Y-64604819D02*
X157122857Y-64604819D01*
X157122857Y-64604819D02*
X157218095Y-64652438D01*
X157218095Y-64652438D02*
X157265714Y-64700057D01*
X157265714Y-64700057D02*
X157313333Y-64795295D01*
X157313333Y-64795295D02*
X157313333Y-64938152D01*
X157313333Y-64938152D02*
X157265714Y-65033390D01*
X157265714Y-65033390D02*
X157218095Y-65081009D01*
X157218095Y-65081009D02*
X157122857Y-65128628D01*
X157122857Y-65128628D02*
X156741905Y-65128628D01*
X157646667Y-64604819D02*
X158265714Y-64604819D01*
X158265714Y-64604819D02*
X157932381Y-64985771D01*
X157932381Y-64985771D02*
X158075238Y-64985771D01*
X158075238Y-64985771D02*
X158170476Y-65033390D01*
X158170476Y-65033390D02*
X158218095Y-65081009D01*
X158218095Y-65081009D02*
X158265714Y-65176247D01*
X158265714Y-65176247D02*
X158265714Y-65414342D01*
X158265714Y-65414342D02*
X158218095Y-65509580D01*
X158218095Y-65509580D02*
X158170476Y-65557200D01*
X158170476Y-65557200D02*
X158075238Y-65604819D01*
X158075238Y-65604819D02*
X157789524Y-65604819D01*
X157789524Y-65604819D02*
X157694286Y-65557200D01*
X157694286Y-65557200D02*
X157646667Y-65509580D01*
D12*
%TO.C,R4*%
X147547064Y-87452500D02*
X147092936Y-87452500D01*
X147547064Y-85982500D02*
X147092936Y-85982500D01*
%TO.C,Q1*%
X145627500Y-116900000D02*
X145627500Y-115570000D01*
X146957500Y-116900000D02*
X145627500Y-116900000D01*
X148227500Y-116900000D02*
X150827500Y-116900000D01*
X148227500Y-116900000D02*
X148227500Y-114240000D01*
X150827500Y-116900000D02*
X150827500Y-114240000D01*
X148227500Y-114240000D02*
X150827500Y-114240000D01*
%TO.C,J3*%
X173545000Y-90150000D02*
X173545000Y-105270000D01*
X173545000Y-105270000D02*
X179515000Y-105270000D01*
X174305000Y-97710000D02*
X174305000Y-91970000D01*
X174305000Y-104510000D02*
X174305000Y-97710000D01*
X177255000Y-90160000D02*
X177255000Y-90910000D01*
X177255000Y-90910000D02*
X175915000Y-90910000D01*
X177255000Y-104510000D02*
X174305000Y-104510000D01*
X177255000Y-105260000D02*
X177255000Y-104510000D01*
X178755000Y-90160000D02*
X178755000Y-91960000D01*
X178755000Y-91960000D02*
X179505000Y-91960000D01*
X178755000Y-93460000D02*
X178755000Y-101960000D01*
X178755000Y-101960000D02*
X179505000Y-101960000D01*
X178755000Y-103460000D02*
X178755000Y-105260000D01*
X178755000Y-105260000D02*
X179505000Y-105260000D01*
X179505000Y-90160000D02*
X178755000Y-90160000D01*
X179505000Y-91960000D02*
X179505000Y-90160000D01*
X179505000Y-93460000D02*
X178755000Y-93460000D01*
X179505000Y-101960000D02*
X179505000Y-93460000D01*
X179505000Y-103460000D02*
X178755000Y-103460000D01*
X179505000Y-105260000D02*
X179505000Y-103460000D01*
X179515000Y-90150000D02*
X173545000Y-90150000D01*
X179515000Y-105270000D02*
X179515000Y-90150000D01*
X179805000Y-89860000D02*
X178555000Y-89860000D01*
X179805000Y-91110000D02*
X179805000Y-89860000D01*
%TO.C,U3*%
X122740000Y-64560000D02*
X122260000Y-64560000D01*
X122740000Y-64560000D02*
X122740000Y-64980000D01*
X122740000Y-67100000D02*
X122740000Y-67520000D01*
X122740000Y-69640000D02*
X122740000Y-70060000D01*
X122740000Y-72180000D02*
X122740000Y-72600000D01*
X122740000Y-74720000D02*
X122740000Y-75140000D01*
X122740000Y-77260000D02*
X122740000Y-77680000D01*
X122740000Y-79800000D02*
X122740000Y-80220000D01*
X122740000Y-82340000D02*
X122740000Y-82760000D01*
X122740000Y-84880000D02*
X122740000Y-85300000D01*
X122740000Y-87420000D02*
X122740000Y-87840000D01*
X122740000Y-89960000D02*
X122740000Y-90380000D01*
X122740000Y-92500000D02*
X122740000Y-92920000D01*
X122740000Y-95040000D02*
X122740000Y-95460000D01*
X122740000Y-97580000D02*
X122740000Y-98000000D01*
X122740000Y-100120000D02*
X122740000Y-100540000D01*
X122740000Y-102660000D02*
X122740000Y-103080000D01*
X122740000Y-105200000D02*
X122740000Y-105620000D01*
X122740000Y-107740000D02*
X122740000Y-108160000D01*
X122740000Y-110280000D02*
X122740000Y-110700000D01*
X122770324Y-62440063D02*
X122260000Y-62440000D01*
X123080000Y-62440063D02*
X123080000Y-62083000D01*
X123080000Y-64560000D02*
X123080000Y-64980000D01*
X123080000Y-67100000D02*
X123080000Y-67520000D01*
X123080000Y-69640000D02*
X123080000Y-70060000D01*
X123080000Y-72180000D02*
X123080000Y-72600000D01*
X123080000Y-74720000D02*
X123080000Y-75140000D01*
X123080000Y-77260000D02*
X123080000Y-77680000D01*
X123080000Y-79800000D02*
X123080000Y-80220000D01*
X123080000Y-82340000D02*
X123080000Y-82760000D01*
X123080000Y-84880000D02*
X123080000Y-85300000D01*
X123080000Y-87420000D02*
X123080000Y-87840000D01*
X123080000Y-89960000D02*
X123080000Y-90380000D01*
X123080000Y-92500000D02*
X123080000Y-92920000D01*
X123080000Y-95040000D02*
X123080000Y-95460000D01*
X123080000Y-97580000D02*
X123080000Y-98000000D01*
X123080000Y-100120000D02*
X123080000Y-100540000D01*
X123080000Y-102660000D02*
X123080000Y-103080000D01*
X123080000Y-105200000D02*
X123080000Y-105620000D01*
X123080000Y-107740000D02*
X123080000Y-108160000D01*
X123080000Y-110280000D02*
X123080000Y-110700000D01*
X123080000Y-112819937D02*
X123080000Y-113177000D01*
X123350000Y-62020000D02*
X125840000Y-62020000D01*
X123350000Y-113240000D02*
X129750000Y-113240000D01*
X125840000Y-62020000D02*
X125840000Y-62933520D01*
X125840000Y-62020000D02*
X129115000Y-62020000D01*
X125840000Y-62933520D02*
X125840000Y-65326480D01*
X125840000Y-65326480D02*
X125840000Y-109933520D01*
X125840000Y-109933520D02*
X125840000Y-112326480D01*
X125840000Y-112326480D02*
X125840000Y-113240000D01*
X129115000Y-62020000D02*
X137585000Y-62020000D01*
X129450000Y-62020000D02*
X129450000Y-62936000D01*
X129450000Y-64314800D02*
X129450000Y-66540000D01*
X129450000Y-66540000D02*
X129746090Y-66540000D01*
X132103910Y-66540000D02*
X134596090Y-66540000D01*
X136950000Y-113240000D02*
X129750000Y-113240000D01*
X136950000Y-113240000D02*
X143350000Y-113240000D01*
X136953910Y-66540000D02*
X137250000Y-66540000D01*
X137250000Y-62020000D02*
X137250000Y-62936000D01*
X137250000Y-64314800D02*
X137250000Y-66540000D01*
X137585000Y-62020000D02*
X140860000Y-62020000D01*
X140860000Y-62020000D02*
X140860000Y-62933520D01*
X140860000Y-62933520D02*
X140860000Y-65326480D01*
X140860000Y-65326480D02*
X140860000Y-109933520D01*
X140860000Y-109933520D02*
X140860000Y-112326480D01*
X140860000Y-112326480D02*
X140860000Y-113240000D01*
X143350000Y-62020000D02*
X140860000Y-62020000D01*
X143620000Y-62440063D02*
X143620000Y-62083000D01*
X143620000Y-64560000D02*
X143620000Y-64980000D01*
X143620000Y-67100000D02*
X143620000Y-67520000D01*
X143620000Y-69640000D02*
X143620000Y-70060000D01*
X143620000Y-72180000D02*
X143620000Y-72600000D01*
X143620000Y-74720000D02*
X143620000Y-75140000D01*
X143620000Y-77260000D02*
X143620000Y-77680000D01*
X143620000Y-79800000D02*
X143620000Y-80220000D01*
X143620000Y-82340000D02*
X143620000Y-82760000D01*
X143620000Y-84880000D02*
X143620000Y-85300000D01*
X143620000Y-87420000D02*
X143620000Y-87840000D01*
X143620000Y-89960000D02*
X143620000Y-90380000D01*
X143620000Y-92500000D02*
X143620000Y-92920000D01*
X143620000Y-95040000D02*
X143620000Y-95460000D01*
X143620000Y-97580000D02*
X143620000Y-98000000D01*
X143620000Y-100120000D02*
X143620000Y-100540000D01*
X143620000Y-102660000D02*
X143620000Y-103080000D01*
X143620000Y-105200000D02*
X143620000Y-105620000D01*
X143620000Y-107740000D02*
X143620000Y-108160000D01*
X143620000Y-110280000D02*
X143620000Y-110700000D01*
X143620000Y-112819937D02*
X143620000Y-113177000D01*
X143960000Y-64560000D02*
X143960000Y-64980000D01*
X143960000Y-67100000D02*
X143960000Y-67520000D01*
X143960000Y-69640000D02*
X143960000Y-70060000D01*
X143960000Y-72180000D02*
X143960000Y-72600000D01*
X143960000Y-74720000D02*
X143960000Y-75140000D01*
X143960000Y-77260000D02*
X143960000Y-77680000D01*
X143960000Y-79800000D02*
X143960000Y-80220000D01*
X143960000Y-82340000D02*
X143960000Y-82760000D01*
X143960000Y-84880000D02*
X143960000Y-85300000D01*
X143960000Y-87420000D02*
X143960000Y-87840000D01*
X143960000Y-89960000D02*
X143960000Y-90380000D01*
X143960000Y-92500000D02*
X143960000Y-92920000D01*
X143960000Y-95040000D02*
X143960000Y-95460000D01*
X143960000Y-97580000D02*
X143960000Y-98000000D01*
X143960000Y-100120000D02*
X143960000Y-100540000D01*
X143960000Y-102660000D02*
X143960000Y-103080000D01*
X143960000Y-105200000D02*
X143960000Y-105620000D01*
X143960000Y-107740000D02*
X143960000Y-108160000D01*
X143960000Y-110280000D02*
X143960000Y-110700000D01*
X122770324Y-62440063D02*
G75*
G02*
X123350000Y-62020000I579676J-189937D01*
G01*
X123350000Y-113240000D02*
G75*
G02*
X122770324Y-112819937I1J610002D01*
G01*
X143350000Y-62020000D02*
G75*
G02*
X143929676Y-62440063I0J-610000D01*
G01*
X143929676Y-112819937D02*
G75*
G02*
X143350000Y-113239948I-579476J189737D01*
G01*
X128590000Y-64130000D02*
G75*
G02*
X126710000Y-64130000I-940000J0D01*
G01*
X126710000Y-64130000D02*
G75*
G02*
X128590000Y-64130000I940000J0D01*
G01*
X128590000Y-111130000D02*
G75*
G02*
X126710000Y-111130000I-940000J0D01*
G01*
X126710000Y-111130000D02*
G75*
G02*
X128590000Y-111130000I940000J0D01*
G01*
X139990000Y-64130000D02*
G75*
G02*
X138110000Y-64130000I-940000J0D01*
G01*
X138110000Y-64130000D02*
G75*
G02*
X139990000Y-64130000I940000J0D01*
G01*
X139990000Y-111130000D02*
G75*
G02*
X138110000Y-111130000I-940000J0D01*
G01*
X138110000Y-111130000D02*
G75*
G02*
X139990000Y-111130000I940000J0D01*
G01*
%TO.C,R2*%
X166905000Y-91937064D02*
X166905000Y-91482936D01*
X168375000Y-91937064D02*
X168375000Y-91482936D01*
%TO.C,J2*%
X173545000Y-62290000D02*
X173545000Y-77410000D01*
X173545000Y-77410000D02*
X179515000Y-77410000D01*
X174305000Y-69850000D02*
X174305000Y-64110000D01*
X174305000Y-76650000D02*
X174305000Y-69850000D01*
X177255000Y-62300000D02*
X177255000Y-63050000D01*
X177255000Y-63050000D02*
X175915000Y-63050000D01*
X177255000Y-76650000D02*
X174305000Y-76650000D01*
X177255000Y-77400000D02*
X177255000Y-76650000D01*
X178755000Y-62300000D02*
X178755000Y-64100000D01*
X178755000Y-64100000D02*
X179505000Y-64100000D01*
X178755000Y-65600000D02*
X178755000Y-74100000D01*
X178755000Y-74100000D02*
X179505000Y-74100000D01*
X178755000Y-75600000D02*
X178755000Y-77400000D01*
X178755000Y-77400000D02*
X179505000Y-77400000D01*
X179505000Y-62300000D02*
X178755000Y-62300000D01*
X179505000Y-64100000D02*
X179505000Y-62300000D01*
X179505000Y-65600000D02*
X178755000Y-65600000D01*
X179505000Y-74100000D02*
X179505000Y-65600000D01*
X179505000Y-75600000D02*
X178755000Y-75600000D01*
X179505000Y-77400000D02*
X179505000Y-75600000D01*
X179515000Y-62290000D02*
X173545000Y-62290000D01*
X179515000Y-77410000D02*
X179515000Y-62290000D01*
X179805000Y-62000000D02*
X178555000Y-62000000D01*
X179805000Y-63250000D02*
X179805000Y-62000000D01*
%TO.C,U2*%
X149800000Y-92590000D02*
X149800000Y-113150000D01*
X149800000Y-113150000D02*
X160080000Y-113150000D01*
X152290000Y-92650000D02*
X152290000Y-113090000D01*
X152290000Y-113090000D02*
X157590000Y-113090000D01*
X153940000Y-92650000D02*
X152290000Y-92650000D01*
X157590000Y-92650000D02*
X155940000Y-92650000D01*
X157590000Y-113090000D02*
X157590000Y-92650000D01*
X160080000Y-92590000D02*
X149800000Y-92590000D01*
X160080000Y-113150000D02*
X160080000Y-92590000D01*
X155940000Y-92650000D02*
G75*
G02*
X153940000Y-92650000I-1000000J0D01*
G01*
%TO.C,U1*%
X149800000Y-68460000D02*
X149800000Y-89020000D01*
X149800000Y-89020000D02*
X160080000Y-89020000D01*
X152290000Y-68520000D02*
X152290000Y-88960000D01*
X152290000Y-88960000D02*
X157590000Y-88960000D01*
X153940000Y-68520000D02*
X152290000Y-68520000D01*
X157590000Y-68520000D02*
X155940000Y-68520000D01*
X157590000Y-88960000D02*
X157590000Y-68520000D01*
X160080000Y-68460000D02*
X149800000Y-68460000D01*
X160080000Y-89020000D02*
X160080000Y-68460000D01*
X155940000Y-68520000D02*
G75*
G02*
X153940000Y-68520000I-1000000J0D01*
G01*
%TO.C,D2*%
X166680000Y-94835000D02*
X166680000Y-97520000D01*
X168600000Y-94835000D02*
X166680000Y-94835000D01*
X168600000Y-97520000D02*
X168600000Y-94835000D01*
%TO.C,C2*%
X165560000Y-111450000D02*
X169720000Y-111450000D01*
X165560000Y-111490000D02*
X169720000Y-111490000D01*
X165561000Y-111410000D02*
X169719000Y-111410000D01*
X165563000Y-111370000D02*
X169717000Y-111370000D01*
X165566000Y-111330000D02*
X169714000Y-111330000D01*
X165569000Y-111290000D02*
X166800000Y-111290000D01*
X165573000Y-111250000D02*
X166800000Y-111250000D01*
X165578000Y-111210000D02*
X166800000Y-111210000D01*
X165584000Y-111170000D02*
X166800000Y-111170000D01*
X165590000Y-111130000D02*
X166800000Y-111130000D01*
X165598000Y-111090000D02*
X166800000Y-111090000D01*
X165606000Y-111050000D02*
X166800000Y-111050000D01*
X165615000Y-111010000D02*
X166800000Y-111010000D01*
X165624000Y-110970000D02*
X166800000Y-110970000D01*
X165635000Y-110930000D02*
X166800000Y-110930000D01*
X165646000Y-110890000D02*
X166800000Y-110890000D01*
X165658000Y-110850000D02*
X166800000Y-110850000D01*
X165672000Y-110810000D02*
X166800000Y-110810000D01*
X165686000Y-110769000D02*
X166800000Y-110769000D01*
X165700000Y-110729000D02*
X166800000Y-110729000D01*
X165716000Y-110689000D02*
X166800000Y-110689000D01*
X165733000Y-110649000D02*
X166800000Y-110649000D01*
X165751000Y-110609000D02*
X166800000Y-110609000D01*
X165770000Y-110569000D02*
X166800000Y-110569000D01*
X165789000Y-110529000D02*
X166800000Y-110529000D01*
X165810000Y-110489000D02*
X166800000Y-110489000D01*
X165832000Y-110449000D02*
X166800000Y-110449000D01*
X165855000Y-110409000D02*
X166800000Y-110409000D01*
X165880000Y-110369000D02*
X166800000Y-110369000D01*
X165905000Y-110329000D02*
X166800000Y-110329000D01*
X165932000Y-110289000D02*
X166800000Y-110289000D01*
X165960000Y-110249000D02*
X166800000Y-110249000D01*
X165990000Y-110209000D02*
X166800000Y-110209000D01*
X166021000Y-110169000D02*
X166800000Y-110169000D01*
X166053000Y-110129000D02*
X166800000Y-110129000D01*
X166088000Y-110089000D02*
X166800000Y-110089000D01*
X166124000Y-110049000D02*
X166800000Y-110049000D01*
X166162000Y-110009000D02*
X166800000Y-110009000D01*
X166202000Y-109969000D02*
X166800000Y-109969000D01*
X166244000Y-109929000D02*
X166800000Y-109929000D01*
X166245000Y-113559801D02*
X166645000Y-113559801D01*
X166289000Y-109889000D02*
X166800000Y-109889000D01*
X166336000Y-109849000D02*
X166800000Y-109849000D01*
X166386000Y-109809000D02*
X166800000Y-109809000D01*
X166440000Y-109769000D02*
X166800000Y-109769000D01*
X166445000Y-113759801D02*
X166445000Y-113359801D01*
X166498000Y-109729000D02*
X166800000Y-109729000D01*
X166560000Y-109689000D02*
X166800000Y-109689000D01*
X166627000Y-109649000D02*
X168653000Y-109649000D01*
X166700000Y-109609000D02*
X168580000Y-109609000D01*
X166781000Y-109569000D02*
X168499000Y-109569000D01*
X166872000Y-109529000D02*
X168408000Y-109529000D01*
X166976000Y-109489000D02*
X168304000Y-109489000D01*
X167103000Y-109449000D02*
X168177000Y-109449000D01*
X167270000Y-109409000D02*
X168010000Y-109409000D01*
X168480000Y-109689000D02*
X168720000Y-109689000D01*
X168480000Y-109729000D02*
X168782000Y-109729000D01*
X168480000Y-109769000D02*
X168840000Y-109769000D01*
X168480000Y-109809000D02*
X168894000Y-109809000D01*
X168480000Y-109849000D02*
X168944000Y-109849000D01*
X168480000Y-109889000D02*
X168991000Y-109889000D01*
X168480000Y-109929000D02*
X169036000Y-109929000D01*
X168480000Y-109969000D02*
X169078000Y-109969000D01*
X168480000Y-110009000D02*
X169118000Y-110009000D01*
X168480000Y-110049000D02*
X169156000Y-110049000D01*
X168480000Y-110089000D02*
X169192000Y-110089000D01*
X168480000Y-110129000D02*
X169227000Y-110129000D01*
X168480000Y-110169000D02*
X169259000Y-110169000D01*
X168480000Y-110209000D02*
X169290000Y-110209000D01*
X168480000Y-110249000D02*
X169320000Y-110249000D01*
X168480000Y-110289000D02*
X169348000Y-110289000D01*
X168480000Y-110329000D02*
X169375000Y-110329000D01*
X168480000Y-110369000D02*
X169400000Y-110369000D01*
X168480000Y-110409000D02*
X169425000Y-110409000D01*
X168480000Y-110449000D02*
X169448000Y-110449000D01*
X168480000Y-110489000D02*
X169470000Y-110489000D01*
X168480000Y-110529000D02*
X169491000Y-110529000D01*
X168480000Y-110569000D02*
X169510000Y-110569000D01*
X168480000Y-110609000D02*
X169529000Y-110609000D01*
X168480000Y-110649000D02*
X169547000Y-110649000D01*
X168480000Y-110689000D02*
X169564000Y-110689000D01*
X168480000Y-110729000D02*
X169580000Y-110729000D01*
X168480000Y-110769000D02*
X169594000Y-110769000D01*
X168480000Y-110810000D02*
X169608000Y-110810000D01*
X168480000Y-110850000D02*
X169622000Y-110850000D01*
X168480000Y-110890000D02*
X169634000Y-110890000D01*
X168480000Y-110930000D02*
X169645000Y-110930000D01*
X168480000Y-110970000D02*
X169656000Y-110970000D01*
X168480000Y-111010000D02*
X169665000Y-111010000D01*
X168480000Y-111050000D02*
X169674000Y-111050000D01*
X168480000Y-111090000D02*
X169682000Y-111090000D01*
X168480000Y-111130000D02*
X169690000Y-111130000D01*
X168480000Y-111170000D02*
X169696000Y-111170000D01*
X168480000Y-111210000D02*
X169702000Y-111210000D01*
X168480000Y-111250000D02*
X169707000Y-111250000D01*
X168480000Y-111290000D02*
X169711000Y-111290000D01*
X169760000Y-111490000D02*
G75*
G02*
X165520000Y-111490000I-2120000J0D01*
G01*
X165520000Y-111490000D02*
G75*
G02*
X169760000Y-111490000I2120000J0D01*
G01*
%TO.C,D3*%
X150130000Y-64460000D02*
X152815000Y-64460000D01*
X152815000Y-62540000D02*
X150130000Y-62540000D01*
X152815000Y-64460000D02*
X152815000Y-62540000D01*
%TO.C,D1*%
X166680000Y-68850000D02*
X166680000Y-71535000D01*
X166680000Y-71535000D02*
X168600000Y-71535000D01*
X168600000Y-71535000D02*
X168600000Y-68850000D01*
%TO.C,R1*%
X166905000Y-73790436D02*
X166905000Y-74244564D01*
X168375000Y-73790436D02*
X168375000Y-74244564D01*
%TO.C,J1*%
X173750000Y-106700000D02*
X173750000Y-116820000D01*
X173750000Y-116820000D02*
X179720000Y-116820000D01*
X174510000Y-111760000D02*
X174510000Y-108520000D01*
X174510000Y-116060000D02*
X174510000Y-111760000D01*
X177460000Y-106710000D02*
X177460000Y-107460000D01*
X177460000Y-107460000D02*
X176120000Y-107460000D01*
X177460000Y-116060000D02*
X174510000Y-116060000D01*
X177460000Y-116810000D02*
X177460000Y-116060000D01*
X178960000Y-106710000D02*
X178960000Y-108510000D01*
X178960000Y-108510000D02*
X179710000Y-108510000D01*
X178960000Y-110010000D02*
X178960000Y-113510000D01*
X178960000Y-113510000D02*
X179710000Y-113510000D01*
X178960000Y-115010000D02*
X178960000Y-116810000D01*
X178960000Y-116810000D02*
X179710000Y-116810000D01*
X179710000Y-106710000D02*
X178960000Y-106710000D01*
X179710000Y-108510000D02*
X179710000Y-106710000D01*
X179710000Y-110010000D02*
X178960000Y-110010000D01*
X179710000Y-113510000D02*
X179710000Y-110010000D01*
X179710000Y-115010000D02*
X178960000Y-115010000D01*
X179710000Y-116810000D02*
X179710000Y-115010000D01*
X179720000Y-106700000D02*
X173750000Y-106700000D01*
X179720000Y-116820000D02*
X179720000Y-106700000D01*
X180010000Y-106410000D02*
X178760000Y-106410000D01*
X180010000Y-107660000D02*
X180010000Y-106410000D01*
%TO.C,C1*%
X165560000Y-106910000D02*
X169720000Y-106910000D01*
X165560000Y-106950000D02*
X169720000Y-106950000D01*
X165561000Y-106870000D02*
X169719000Y-106870000D01*
X165563000Y-106830000D02*
X169717000Y-106830000D01*
X165566000Y-106790000D02*
X169714000Y-106790000D01*
X165569000Y-106750000D02*
X166800000Y-106750000D01*
X165573000Y-106710000D02*
X166800000Y-106710000D01*
X165578000Y-106670000D02*
X166800000Y-106670000D01*
X165584000Y-106630000D02*
X166800000Y-106630000D01*
X165590000Y-106590000D02*
X166800000Y-106590000D01*
X165598000Y-106550000D02*
X166800000Y-106550000D01*
X165606000Y-106510000D02*
X166800000Y-106510000D01*
X165615000Y-106470000D02*
X166800000Y-106470000D01*
X165624000Y-106430000D02*
X166800000Y-106430000D01*
X165635000Y-106390000D02*
X166800000Y-106390000D01*
X165646000Y-106350000D02*
X166800000Y-106350000D01*
X165658000Y-106310000D02*
X166800000Y-106310000D01*
X165672000Y-106270000D02*
X166800000Y-106270000D01*
X165686000Y-106229000D02*
X166800000Y-106229000D01*
X165700000Y-106189000D02*
X166800000Y-106189000D01*
X165716000Y-106149000D02*
X166800000Y-106149000D01*
X165733000Y-106109000D02*
X166800000Y-106109000D01*
X165751000Y-106069000D02*
X166800000Y-106069000D01*
X165770000Y-106029000D02*
X166800000Y-106029000D01*
X165789000Y-105989000D02*
X166800000Y-105989000D01*
X165810000Y-105949000D02*
X166800000Y-105949000D01*
X165832000Y-105909000D02*
X166800000Y-105909000D01*
X165855000Y-105869000D02*
X166800000Y-105869000D01*
X165880000Y-105829000D02*
X166800000Y-105829000D01*
X165905000Y-105789000D02*
X166800000Y-105789000D01*
X165932000Y-105749000D02*
X166800000Y-105749000D01*
X165960000Y-105709000D02*
X166800000Y-105709000D01*
X165990000Y-105669000D02*
X166800000Y-105669000D01*
X166021000Y-105629000D02*
X166800000Y-105629000D01*
X166053000Y-105589000D02*
X166800000Y-105589000D01*
X166088000Y-105549000D02*
X166800000Y-105549000D01*
X166124000Y-105509000D02*
X166800000Y-105509000D01*
X166162000Y-105469000D02*
X166800000Y-105469000D01*
X166202000Y-105429000D02*
X166800000Y-105429000D01*
X166244000Y-105389000D02*
X166800000Y-105389000D01*
X166245000Y-109019801D02*
X166645000Y-109019801D01*
X166289000Y-105349000D02*
X166800000Y-105349000D01*
X166336000Y-105309000D02*
X166800000Y-105309000D01*
X166386000Y-105269000D02*
X166800000Y-105269000D01*
X166440000Y-105229000D02*
X166800000Y-105229000D01*
X166445000Y-109219801D02*
X166445000Y-108819801D01*
X166498000Y-105189000D02*
X166800000Y-105189000D01*
X166560000Y-105149000D02*
X166800000Y-105149000D01*
X166627000Y-105109000D02*
X168653000Y-105109000D01*
X166700000Y-105069000D02*
X168580000Y-105069000D01*
X166781000Y-105029000D02*
X168499000Y-105029000D01*
X166872000Y-104989000D02*
X168408000Y-104989000D01*
X166976000Y-104949000D02*
X168304000Y-104949000D01*
X167103000Y-104909000D02*
X168177000Y-104909000D01*
X167270000Y-104869000D02*
X168010000Y-104869000D01*
X168480000Y-105149000D02*
X168720000Y-105149000D01*
X168480000Y-105189000D02*
X168782000Y-105189000D01*
X168480000Y-105229000D02*
X168840000Y-105229000D01*
X168480000Y-105269000D02*
X168894000Y-105269000D01*
X168480000Y-105309000D02*
X168944000Y-105309000D01*
X168480000Y-105349000D02*
X168991000Y-105349000D01*
X168480000Y-105389000D02*
X169036000Y-105389000D01*
X168480000Y-105429000D02*
X169078000Y-105429000D01*
X168480000Y-105469000D02*
X169118000Y-105469000D01*
X168480000Y-105509000D02*
X169156000Y-105509000D01*
X168480000Y-105549000D02*
X169192000Y-105549000D01*
X168480000Y-105589000D02*
X169227000Y-105589000D01*
X168480000Y-105629000D02*
X169259000Y-105629000D01*
X168480000Y-105669000D02*
X169290000Y-105669000D01*
X168480000Y-105709000D02*
X169320000Y-105709000D01*
X168480000Y-105749000D02*
X169348000Y-105749000D01*
X168480000Y-105789000D02*
X169375000Y-105789000D01*
X168480000Y-105829000D02*
X169400000Y-105829000D01*
X168480000Y-105869000D02*
X169425000Y-105869000D01*
X168480000Y-105909000D02*
X169448000Y-105909000D01*
X168480000Y-105949000D02*
X169470000Y-105949000D01*
X168480000Y-105989000D02*
X169491000Y-105989000D01*
X168480000Y-106029000D02*
X169510000Y-106029000D01*
X168480000Y-106069000D02*
X169529000Y-106069000D01*
X168480000Y-106109000D02*
X169547000Y-106109000D01*
X168480000Y-106149000D02*
X169564000Y-106149000D01*
X168480000Y-106189000D02*
X169580000Y-106189000D01*
X168480000Y-106229000D02*
X169594000Y-106229000D01*
X168480000Y-106270000D02*
X169608000Y-106270000D01*
X168480000Y-106310000D02*
X169622000Y-106310000D01*
X168480000Y-106350000D02*
X169634000Y-106350000D01*
X168480000Y-106390000D02*
X169645000Y-106390000D01*
X168480000Y-106430000D02*
X169656000Y-106430000D01*
X168480000Y-106470000D02*
X169665000Y-106470000D01*
X168480000Y-106510000D02*
X169674000Y-106510000D01*
X168480000Y-106550000D02*
X169682000Y-106550000D01*
X168480000Y-106590000D02*
X169690000Y-106590000D01*
X168480000Y-106630000D02*
X169696000Y-106630000D01*
X168480000Y-106670000D02*
X169702000Y-106670000D01*
X168480000Y-106710000D02*
X169707000Y-106710000D01*
X168480000Y-106750000D02*
X169711000Y-106750000D01*
X169760000Y-106950000D02*
G75*
G02*
X165520000Y-106950000I-2120000J0D01*
G01*
X165520000Y-106950000D02*
G75*
G02*
X169760000Y-106950000I2120000J0D01*
G01*
D13*
%TO.C,G\u002A\u002A\u002A*%
G36*
X167403445Y-85758211D02*
G01*
X167508273Y-85823282D01*
X167642501Y-85921469D01*
X167682617Y-85953140D01*
X168104775Y-86271916D01*
X168500713Y-86530811D01*
X168777315Y-86682751D01*
X168926383Y-86763586D01*
X169017687Y-86837382D01*
X169048407Y-86914546D01*
X169015727Y-87005486D01*
X168916829Y-87120613D01*
X168748896Y-87270334D01*
X168581161Y-87407401D01*
X168384440Y-87566025D01*
X168192666Y-87721712D01*
X168027822Y-87856553D01*
X167912054Y-87952504D01*
X167652752Y-88137014D01*
X167415079Y-88237266D01*
X167201434Y-88252523D01*
X167066871Y-88211950D01*
X166941828Y-88105077D01*
X166882266Y-87942289D01*
X166889453Y-87731750D01*
X166956516Y-87501861D01*
X167049925Y-87210756D01*
X167124921Y-86873304D01*
X167173220Y-86533308D01*
X167187098Y-86282537D01*
X167202390Y-86047873D01*
X167244581Y-85870067D01*
X167309827Y-85762109D01*
X167347939Y-85739001D01*
X167403445Y-85758211D01*
G37*
G36*
X163564604Y-83155650D02*
G01*
X163695709Y-83216862D01*
X163836782Y-83307172D01*
X164238825Y-83582753D01*
X164575741Y-83809213D01*
X164855237Y-83991508D01*
X165085018Y-84134598D01*
X165272791Y-84243437D01*
X165382585Y-84301508D01*
X165700204Y-84461458D01*
X165666025Y-84650997D01*
X165649095Y-84776588D01*
X165630748Y-84963815D01*
X165613607Y-85183692D01*
X165604048Y-85335846D01*
X165586403Y-85581181D01*
X165562846Y-85743221D01*
X165528713Y-85829379D01*
X165479340Y-85847067D01*
X165410062Y-85803696D01*
X165348340Y-85742179D01*
X165263897Y-85636788D01*
X165159296Y-85486701D01*
X165067860Y-85341864D01*
X164980111Y-85199421D01*
X164890643Y-85066083D01*
X164788234Y-84927462D01*
X164661664Y-84769171D01*
X164499711Y-84576822D01*
X164291155Y-84336027D01*
X164219689Y-84254321D01*
X163966924Y-83956836D01*
X163764997Y-83700697D01*
X163615241Y-83489202D01*
X163518990Y-83325652D01*
X163477578Y-83213344D01*
X163492338Y-83155577D01*
X163564604Y-83155650D01*
G37*
G36*
X167542784Y-85162674D02*
G01*
X167763290Y-85200701D01*
X167962742Y-85240919D01*
X168213244Y-85288768D01*
X168476360Y-85337000D01*
X168627734Y-85363704D01*
X168937230Y-85424742D01*
X169175037Y-85491878D01*
X169360141Y-85573792D01*
X169511531Y-85679165D01*
X169648193Y-85816678D01*
X169667140Y-85838881D01*
X169813754Y-86027748D01*
X169949696Y-86228820D01*
X170063544Y-86422428D01*
X170143877Y-86588904D01*
X170179271Y-86708579D01*
X170180000Y-86722007D01*
X170162171Y-86839449D01*
X170103288Y-86912950D01*
X169995259Y-86943127D01*
X169829995Y-86930594D01*
X169599401Y-86875969D01*
X169318215Y-86787589D01*
X169061349Y-86696918D01*
X168847933Y-86609384D01*
X168655126Y-86512354D01*
X168460089Y-86393196D01*
X168239983Y-86239280D01*
X167995941Y-86056297D01*
X167739403Y-85852057D01*
X167521565Y-85661928D01*
X167351173Y-85494616D01*
X167236977Y-85358827D01*
X167187724Y-85263270D01*
X167186429Y-85250627D01*
X167227030Y-85182609D01*
X167346821Y-85153205D01*
X167542784Y-85162674D01*
G37*
G36*
X166094237Y-84649256D02*
G01*
X166218819Y-84695225D01*
X166421816Y-84773690D01*
X166636439Y-84854818D01*
X166788180Y-84910806D01*
X166936539Y-84970053D01*
X167022252Y-85025715D01*
X167069974Y-85098853D01*
X167094088Y-85172119D01*
X167132506Y-85401197D01*
X167143778Y-85695947D01*
X167129820Y-86036104D01*
X167092543Y-86401407D01*
X167033861Y-86771593D01*
X166955689Y-87126397D01*
X166886947Y-87365502D01*
X166789071Y-87646849D01*
X166703228Y-87844368D01*
X166626163Y-87963645D01*
X166554619Y-88010269D01*
X166513640Y-88005947D01*
X166448631Y-87939269D01*
X166371749Y-87786602D01*
X166284490Y-87551681D01*
X166188348Y-87238241D01*
X166147791Y-87091910D01*
X166075763Y-86843806D01*
X165991263Y-86580733D01*
X165907797Y-86343805D01*
X165870109Y-86246607D01*
X165794034Y-86043019D01*
X165745759Y-85862713D01*
X165717322Y-85667175D01*
X165701332Y-85430178D01*
X165696109Y-85217528D01*
X165699798Y-85022066D01*
X165711478Y-84872683D01*
X165720719Y-84821592D01*
X165767603Y-84692522D01*
X165834640Y-84623528D01*
X165938096Y-84610481D01*
X166094237Y-84649256D01*
G37*
G36*
X162690064Y-79749209D02*
G01*
X162696072Y-79749539D01*
X163032933Y-79801826D01*
X163327807Y-79915201D01*
X163564216Y-80082930D01*
X163599782Y-80118903D01*
X163734920Y-80214838D01*
X163871925Y-80237573D01*
X164180233Y-80270202D01*
X164531382Y-80359800D01*
X164905267Y-80498008D01*
X165281783Y-80676471D01*
X165640828Y-80886833D01*
X165925857Y-81091294D01*
X166213392Y-81336580D01*
X166484902Y-81604932D01*
X166750125Y-81908359D01*
X167018805Y-82258864D01*
X167300680Y-82668455D01*
X167605493Y-83149137D01*
X167636462Y-83199697D01*
X167867574Y-83515074D01*
X168176419Y-83829679D01*
X168567488Y-84147691D01*
X168917041Y-84390678D01*
X169119846Y-84525771D01*
X169295779Y-84646821D01*
X169430630Y-84743751D01*
X169510192Y-84806487D01*
X169524546Y-84821456D01*
X169517038Y-84886666D01*
X169451706Y-84955874D01*
X169381707Y-85021197D01*
X169381651Y-85075089D01*
X169404900Y-85107823D01*
X169454875Y-85203399D01*
X169420409Y-85268563D01*
X169301024Y-85303661D01*
X169126870Y-85309989D01*
X168950230Y-85303462D01*
X168790034Y-85293660D01*
X168705893Y-85285603D01*
X168048837Y-85170107D01*
X167375308Y-84994598D01*
X166698643Y-84765642D01*
X166032176Y-84489805D01*
X165389243Y-84173651D01*
X164783180Y-83823748D01*
X164227321Y-83446660D01*
X163735003Y-83048953D01*
X163319562Y-82637193D01*
X163313941Y-82630896D01*
X163106140Y-82380460D01*
X162960628Y-82158138D01*
X162865715Y-81939547D01*
X162809710Y-81700301D01*
X162790054Y-81538169D01*
X162743308Y-81223544D01*
X162664088Y-80980551D01*
X162546734Y-80794161D01*
X162485501Y-80729880D01*
X162414083Y-80673732D01*
X162331605Y-80641169D01*
X162211762Y-80626073D01*
X162028248Y-80622322D01*
X162023145Y-80622321D01*
X161847518Y-80620817D01*
X161742982Y-80612191D01*
X161689921Y-80590271D01*
X161668715Y-80548883D01*
X161662756Y-80508928D01*
X161675398Y-80401972D01*
X161722032Y-80260281D01*
X161753471Y-80191428D01*
X161760572Y-80180201D01*
X162290991Y-80180201D01*
X162304260Y-80259464D01*
X162365312Y-80310197D01*
X162468593Y-80327123D01*
X162572181Y-80310316D01*
X162634155Y-80259848D01*
X162634534Y-80258886D01*
X162629838Y-80164453D01*
X162558653Y-80088286D01*
X162444950Y-80055417D01*
X162439630Y-80055357D01*
X162334384Y-80090447D01*
X162290991Y-80180201D01*
X161760572Y-80180201D01*
X161842826Y-80050144D01*
X161961181Y-79943671D01*
X162106429Y-79859019D01*
X162249165Y-79791378D01*
X162369159Y-79755145D01*
X162503696Y-79743396D01*
X162690064Y-79749209D01*
G37*
G36*
X168946863Y-76863089D02*
G01*
X169017940Y-76931692D01*
X169049516Y-76997670D01*
X169066295Y-77095503D01*
X169069683Y-77243983D01*
X169061089Y-77461904D01*
X169059624Y-77488247D01*
X169052360Y-77757116D01*
X169067739Y-77991025D01*
X169111476Y-78214649D01*
X169189286Y-78452662D01*
X169306883Y-78729739D01*
X169386278Y-78898750D01*
X169523036Y-79156841D01*
X169655133Y-79355567D01*
X169776160Y-79487324D01*
X169879708Y-79544509D01*
X169927828Y-79541065D01*
X169978945Y-79487147D01*
X169995588Y-79373943D01*
X169977099Y-79195842D01*
X169922817Y-78947232D01*
X169832085Y-78622502D01*
X169812212Y-78556780D01*
X169693294Y-78113337D01*
X169629000Y-77740266D01*
X169619145Y-77435656D01*
X169663541Y-77197594D01*
X169676373Y-77163839D01*
X169746144Y-77042629D01*
X169815629Y-77008839D01*
X169881367Y-77059230D01*
X169939901Y-77190563D01*
X169987771Y-77399600D01*
X169997839Y-77464834D01*
X170050083Y-77734153D01*
X170129847Y-77952238D01*
X170252654Y-78157773D01*
X170303991Y-78227755D01*
X170375806Y-78308263D01*
X170505243Y-78439294D01*
X170681985Y-78611265D01*
X170895713Y-78814588D01*
X171136111Y-79039678D01*
X171392859Y-79276950D01*
X171655641Y-79516818D01*
X171914139Y-79749696D01*
X172158034Y-79965999D01*
X172377010Y-80156140D01*
X172409908Y-80184231D01*
X172608306Y-80355675D01*
X172749411Y-80486139D01*
X172846771Y-80591310D01*
X172913931Y-80686875D01*
X172964435Y-80788522D01*
X172992264Y-80858648D01*
X173087861Y-81182448D01*
X173118565Y-81467263D01*
X173083504Y-81702934D01*
X173068377Y-81743625D01*
X172995024Y-81869969D01*
X172897199Y-81935500D01*
X172760774Y-81942611D01*
X172571617Y-81893694D01*
X172450876Y-81848179D01*
X172244700Y-81772616D01*
X172104872Y-81743296D01*
X172018628Y-81762071D01*
X171973205Y-81830793D01*
X171957948Y-81919710D01*
X171960141Y-82018819D01*
X171992793Y-82114811D01*
X172067550Y-82232772D01*
X172157838Y-82350225D01*
X172392117Y-82632280D01*
X172591980Y-82845677D01*
X172767914Y-83000580D01*
X172930406Y-83107155D01*
X172948746Y-83116793D01*
X173151116Y-83266909D01*
X173298805Y-83470995D01*
X173379355Y-83706376D01*
X173385918Y-83912534D01*
X173377287Y-84061948D01*
X173399037Y-84151254D01*
X173432769Y-84190754D01*
X173546559Y-84336816D01*
X173624453Y-84541637D01*
X173662836Y-84779202D01*
X173658097Y-85023493D01*
X173606622Y-85248495D01*
X173586488Y-85297672D01*
X173494848Y-85454061D01*
X173385593Y-85574776D01*
X173274226Y-85650134D01*
X173176251Y-85670455D01*
X173107169Y-85626058D01*
X173096261Y-85603793D01*
X173099575Y-85517228D01*
X173145510Y-85394452D01*
X173165721Y-85356682D01*
X173248202Y-85127823D01*
X173256966Y-84875513D01*
X173191742Y-84629538D01*
X173172650Y-84589264D01*
X173081014Y-84409642D01*
X172798454Y-84409473D01*
X172529731Y-84381184D01*
X172326650Y-84292824D01*
X172182172Y-84138606D01*
X172089257Y-83912744D01*
X172066082Y-83807344D01*
X172058169Y-83788161D01*
X172501430Y-83788161D01*
X172518692Y-83899728D01*
X172597569Y-83976638D01*
X172693353Y-83992278D01*
X172764051Y-83957656D01*
X172787602Y-83865829D01*
X172788036Y-83842678D01*
X172776778Y-83746284D01*
X172723811Y-83710758D01*
X172652586Y-83706607D01*
X172541802Y-83728326D01*
X172501430Y-83788161D01*
X172058169Y-83788161D01*
X172002281Y-83652676D01*
X171860496Y-83467120D01*
X171639225Y-83249098D01*
X171336964Y-82997028D01*
X171183130Y-82878839D01*
X170998417Y-82744319D01*
X170862999Y-82659029D01*
X170757451Y-82612981D01*
X170662350Y-82596185D01*
X170631906Y-82595357D01*
X170466751Y-82630720D01*
X170360413Y-82734169D01*
X170316592Y-82901738D01*
X170315629Y-82934288D01*
X170285395Y-83102055D01*
X170207235Y-83297799D01*
X170098583Y-83486594D01*
X169976876Y-83633514D01*
X169958361Y-83649959D01*
X169746572Y-83775362D01*
X169517914Y-83813331D01*
X169279386Y-83763948D01*
X169054133Y-83639196D01*
X168974489Y-83564556D01*
X168851222Y-83427426D01*
X168693593Y-83239026D01*
X168510862Y-83010573D01*
X168312291Y-82753282D01*
X168204751Y-82610348D01*
X167823196Y-82102928D01*
X167487671Y-81666273D01*
X167193957Y-81295619D01*
X166937835Y-80986204D01*
X166715089Y-80733266D01*
X166521498Y-80532041D01*
X166352847Y-80377768D01*
X166204917Y-80265683D01*
X166073489Y-80191023D01*
X166054668Y-80182642D01*
X165858417Y-80084165D01*
X165741323Y-79987300D01*
X165692574Y-79882027D01*
X165689643Y-79844220D01*
X165701190Y-79774778D01*
X165752780Y-79744433D01*
X165866106Y-79737857D01*
X166024735Y-79753337D01*
X166242476Y-79795283D01*
X166494025Y-79856949D01*
X166754077Y-79931591D01*
X166997328Y-80012465D01*
X167198474Y-80092824D01*
X167199340Y-80093217D01*
X167389960Y-80194661D01*
X167585178Y-80321650D01*
X167699455Y-80410456D01*
X167856511Y-80530973D01*
X167984222Y-80589356D01*
X168065745Y-80599642D01*
X168218450Y-80561143D01*
X168341388Y-80461419D01*
X168420562Y-80324135D01*
X168441970Y-80172955D01*
X168397083Y-80039575D01*
X168279926Y-79924138D01*
X168087333Y-79808322D01*
X167834420Y-79697212D01*
X167536300Y-79595894D01*
X167208090Y-79509454D01*
X166864903Y-79442978D01*
X166521853Y-79401551D01*
X166494708Y-79399459D01*
X166210072Y-79371024D01*
X166006886Y-79332322D01*
X165876216Y-79280800D01*
X165809126Y-79213908D01*
X165803897Y-79202138D01*
X165810842Y-79113092D01*
X165884021Y-79035732D01*
X165999085Y-78986673D01*
X166126924Y-78981714D01*
X166250204Y-78982600D01*
X166342354Y-78951961D01*
X166377726Y-78912251D01*
X166373126Y-78858013D01*
X166322640Y-78766344D01*
X166276331Y-78696340D01*
X166179988Y-78520646D01*
X166159813Y-78387430D01*
X166215368Y-78290585D01*
X166245660Y-78268382D01*
X166326966Y-78244644D01*
X166426477Y-78282282D01*
X166449767Y-78296372D01*
X166613632Y-78395012D01*
X166723023Y-78447582D01*
X166797285Y-78460737D01*
X166855765Y-78441131D01*
X166861112Y-78437863D01*
X166938941Y-78351958D01*
X166933892Y-78241193D01*
X166845527Y-78100955D01*
X166827145Y-78079460D01*
X166720305Y-77923387D01*
X166692713Y-77795628D01*
X166742249Y-77704024D01*
X166866796Y-77656419D01*
X166942807Y-77651428D01*
X167076561Y-77679744D01*
X167216734Y-77773366D01*
X167259432Y-77811925D01*
X167387701Y-77920966D01*
X167476435Y-77961300D01*
X167532266Y-77927855D01*
X167561827Y-77815558D01*
X167571751Y-77619335D01*
X167571965Y-77572883D01*
X167576560Y-77370774D01*
X167592696Y-77238652D01*
X167623895Y-77156144D01*
X167649664Y-77123610D01*
X167726792Y-77072030D01*
X167816541Y-77086817D01*
X167838498Y-77096334D01*
X167935309Y-77172986D01*
X167981610Y-77251788D01*
X168062162Y-77415178D01*
X168169804Y-77500168D01*
X168289521Y-77508709D01*
X168406302Y-77442753D01*
X168505132Y-77304252D01*
X168552263Y-77177598D01*
X168625337Y-77005288D01*
X168725236Y-76890272D01*
X168837298Y-76840292D01*
X168946863Y-76863089D01*
G37*
D12*
%TO.C,R3*%
X157707064Y-62765000D02*
X157252936Y-62765000D01*
X157707064Y-64235000D02*
X157252936Y-64235000D01*
%TD*%
M02*
